<svg data-v-29081953="" xmlns="http://www.w3.org/2000/svg" viewBox="0 0 300 300"><!----><defs data-v-29081953=""><!----></defs><rect data-v-29081953="" fill="#085429" x="0" y="0" width="300px" height="300px" class="logo-background-square"></rect><defs data-v-29081953=""><!----></defs><g data-v-29081953="" id="6bf610aa-1222-4e2a-97f6-e9ed64aae1b6" fill="#FFFFFF" transform="matrix(2.212243306081796,0,0,2.212243306081796,86.02180531547414,131.19826107292815)"><path d="M2.25 3.72L2.25 3.72L4.40 3.72L4.40 3.72Q5.42 3.72 6.10 4.14L6.10 4.14L6.10 4.14Q6.79 4.56 7.15 5.21L7.15 5.21L7.15 5.21Q7.52 5.87 7.57 6.66L7.57 6.66L7.57 6.66Q7.62 7.45 7.39 8.19L7.39 8.19L7.39 8.19Q7.17 8.93 6.67 9.53L6.67 9.53L6.67 9.53Q6.17 10.14 5.45 10.42L5.45 10.42L7.90 13.52L5.61 13.52L2.90 10.08L2.90 10.08Q2.59 9.69 2.63 9.21L2.63 9.21L2.63 9.21Q2.66 8.74 2.90 8.39L2.90 8.39L2.90 8.39Q2.97 8.54 3.16 8.62L3.16 8.62L3.16 8.62Q3.36 8.71 3.60 8.75L3.60 8.75L3.60 8.75Q3.85 8.79 4.09 8.79L4.09 8.79L4.09 8.79Q4.33 8.79 4.49 8.76L4.49 8.76L4.49 8.76Q4.87 8.69 5.15 8.43L5.15 8.43L5.15 8.43Q5.42 8.16 5.55 7.81L5.55 7.81L5.55 7.81Q5.68 7.45 5.68 7.05L5.68 7.05L5.68 7.05Q5.68 6.65 5.52 6.31L5.52 6.31L5.52 6.31Q5.36 5.98 5.02 5.76L5.02 5.76L5.02 5.76Q4.68 5.54 4.14 5.54L4.14 5.54L2.56 5.54L2.56 13.52L0.70 13.52L0.70 5.45L0.70 5.45Q0.70 4.68 1.05 4.20L1.05 4.20L1.05 4.20Q1.40 3.72 2.25 3.72ZM12.81 6.10L12.81 6.10L12.81 6.10Q13.92 6.10 14.78 6.64L14.78 6.64L14.78 6.64Q15.64 7.17 16.13 7.99L16.13 7.99L16.13 7.99Q16.62 8.82 16.65 9.83L16.65 9.83L16.65 9.83Q16.69 10.84 16.14 11.80L16.14 11.80L16.14 11.80Q15.68 12.60 14.94 13.08L14.94 13.08L14.94 13.08Q14.20 13.55 13.36 13.67L13.36 13.67L13.36 13.67Q12.52 13.79 11.67 13.53L11.67 13.53L11.67 13.53Q10.82 13.27 10.15 12.60L10.15 12.60L10.15 12.60Q9.39 11.83 9.14 10.82L9.14 10.82L9.14 10.82Q8.89 9.81 9.18 8.81L9.18 8.81L9.18 8.81Q9.31 8.40 9.60 8.13L9.60 8.13L9.60 8.13Q9.88 7.87 10.25 7.74L10.25 7.74L10.25 7.74Q10.61 7.62 11.00 7.63L11.00 7.63L11.00 7.63Q11.40 7.64 11.73 7.79L11.73 7.79L11.73 7.79Q12.07 7.94 12.30 8.21L12.30 8.21L12.30 8.21Q12.53 8.48 12.57 8.88L12.57 8.88L12.57 8.88Q12.36 8.72 12.07 8.71L12.07 8.71L12.07 8.71Q11.77 8.71 11.50 8.84L11.50 8.84L11.50 8.84Q11.23 8.97 11.04 9.25L11.04 9.25L11.04 9.25Q10.85 9.52 10.85 9.93L10.85 9.93L10.85 9.93Q10.85 10.63 11.14 11.09L11.14 11.09L11.14 11.09Q11.44 11.55 11.88 11.78L11.88 11.78L11.88 11.78Q12.32 12.01 12.83 12.01L12.83 12.01L12.83 12.01Q13.34 12.01 13.78 11.77L13.78 11.77L13.78 11.77Q14.22 11.54 14.52 11.07L14.52 11.07L14.52 11.07Q14.81 10.60 14.81 9.90L14.81 9.90L14.81 9.90Q14.81 9.35 14.62 8.93L14.62 8.93L14.62 8.93Q14.42 8.51 14.09 8.24L14.09 8.24L14.09 8.24Q13.76 7.97 13.33 7.86L13.33 7.86L13.33 7.86Q12.89 7.76 12.40 7.85L12.40 7.85L12.40 7.85Q12.19 7.60 11.89 7.46L11.89 7.46L11.89 7.46Q11.59 7.31 11.24 7.26L11.24 7.26L11.24 7.26Q10.89 7.21 10.54 7.27L10.54 7.27L10.54 7.27Q10.19 7.34 9.88 7.52L9.88 7.52L9.88 7.52Q10.44 6.85 11.19 6.48L11.19 6.48L11.19 6.48Q11.93 6.10 12.81 6.10ZM19.54 12.75L19.54 13.52L17.78 13.52L17.78 5.17L17.78 5.17Q17.78 4.59 18.25 4.17L18.25 4.17L18.25 4.17Q18.72 3.75 19.54 3.72L19.54 3.72L19.54 9.37L19.54 9.37Q19.54 9.84 19.63 10.33L19.63 10.33L19.63 10.33Q19.73 10.81 19.94 11.20L19.94 11.20L19.94 11.20Q20.15 11.59 20.51 11.84L20.51 11.84L20.51 11.84Q20.87 12.08 21.42 12.08L21.42 12.08L21.42 12.08Q22.06 12.08 22.49 11.77L22.49 11.77L22.49 11.77Q22.92 11.47 23.13 11.00L23.13 11.00L23.13 11.00Q23.34 10.54 23.33 10.00L23.33 10.00L23.33 10.00Q23.32 9.45 23.11 8.99L23.11 8.99L23.11 8.99Q22.89 8.53 22.46 8.22L22.46 8.22L22.46 8.22Q22.04 7.91 21.41 7.91L21.41 7.91L21.41 7.91Q21.03 7.91 20.60 8.03L20.60 8.03L20.60 8.03Q20.17 8.15 19.94 8.48L19.94 8.48L19.94 8.48Q19.81 8.26 19.80 7.90L19.80 7.90L19.80 7.90Q19.80 7.53 19.98 7.18L19.98 7.18L19.98 7.18Q20.16 6.83 20.55 6.57L20.55 6.57L20.55 6.57Q20.94 6.30 21.64 6.27L21.64 6.27L21.64 6.27Q22.32 6.26 22.94 6.52L22.94 6.52L22.94 6.52Q23.56 6.79 24.04 7.28L24.04 7.28L24.04 7.28Q24.53 7.77 24.81 8.46L24.81 8.46L24.81 8.46Q25.10 9.16 25.10 9.98L25.10 9.98L25.10 9.98Q25.10 10.84 24.84 11.52L24.84 11.52L24.84 11.52Q24.57 12.19 24.12 12.67L24.12 12.67L24.12 12.67Q23.67 13.15 23.10 13.41L23.10 13.41L23.10 13.41Q22.53 13.68 21.91 13.70L21.91 13.70L21.91 13.70Q21.29 13.72 20.68 13.50L20.68 13.50L20.68 13.50Q20.06 13.27 19.54 12.75L19.54 12.75ZM31.46 3.71L32.28 3.71L34.57 10.56L36.86 3.71L37.45 3.71L37.46 3.71L39.31 3.71L39.31 13.51L37.45 13.51L37.45 7.35L35.92 11.89L35.92 11.89Q35.85 12.10 35.80 12.31L35.80 12.31L35.80 12.31Q35.76 12.53 35.75 12.73L35.75 12.73L35.75 12.73Q35.74 12.94 35.80 13.11L35.80 13.11L35.80 13.11Q35.87 13.29 36.04 13.40L36.04 13.40L36.04 13.40Q35.66 13.59 35.20 13.60L35.20 13.60L35.20 13.60Q34.75 13.61 34.45 13.50L34.45 13.50L34.45 13.50Q34.20 13.40 34.00 13.22L34.00 13.22L34.00 13.22Q33.80 13.05 33.64 12.83L33.64 12.83L33.64 12.83Q33.49 12.61 33.38 12.37L33.38 12.37L33.38 12.37Q33.28 12.12 33.19 11.89L33.19 11.89L31.72 7.48L31.72 13.51L29.86 13.51L29.86 5.18L29.86 5.18Q29.86 4.49 30.29 4.10L30.29 4.10L30.29 4.10Q30.72 3.71 31.46 3.71L31.46 3.71ZM45.65 10.72L45.65 10.72L45.65 10.72Q44.90 10.92 44.27 10.86L44.27 10.86L44.27 10.86Q43.65 10.81 43.25 10.56L43.25 10.56L43.25 10.56Q42.85 10.32 42.72 9.91L42.72 9.91L42.72 9.91Q42.59 9.49 42.80 8.97L42.80 8.97L42.80 8.97Q43.23 9.34 43.81 9.37L43.81 9.37L43.81 9.37Q44.38 9.41 44.91 9.35L44.91 9.35L44.91 9.35Q45.36 9.31 45.59 9.16L45.59 9.16L45.59 9.16Q45.82 9.00 45.88 8.80L45.88 8.80L45.88 8.80Q45.93 8.60 45.84 8.37L45.84 8.37L45.84 8.37Q45.74 8.15 45.52 7.97L45.52 7.97L45.52 7.97Q45.30 7.78 44.99 7.67L44.99 7.67L44.99 7.67Q44.67 7.56 44.30 7.57L44.30 7.57L44.30 7.57Q43.89 7.60 43.53 7.77L43.53 7.77L43.53 7.77Q43.16 7.94 42.88 8.23L42.88 8.23L42.88 8.23Q42.60 8.53 42.43 8.92L42.43 8.92L42.43 8.92Q42.27 9.31 42.25 9.79L42.25 9.79L42.25 9.79Q42.24 10.18 42.34 10.56L42.34 10.56L42.34 10.56Q42.45 10.93 42.66 11.25L42.66 11.25L42.66 11.25Q42.87 11.56 43.16 11.78L43.16 11.78L43.16 11.78Q43.46 12.00 43.83 12.05L43.83 12.05L43.83 12.05Q44.37 12.15 44.93 11.98L44.93 11.98L44.93 11.98Q45.49 11.82 45.92 11.37L45.92 11.37L47.39 12.08L47.39 12.08Q46.82 12.94 46.03 13.31L46.03 13.31L46.03 13.31Q45.25 13.68 44.24 13.68L44.24 13.68L44.24 13.68Q43.30 13.68 42.59 13.35L42.59 13.35L42.59 13.35Q41.89 13.02 41.42 12.47L41.42 12.47L41.42 12.47Q40.95 11.93 40.72 11.24L40.72 11.24L40.72 11.24Q40.49 10.54 40.50 9.82L40.50 9.82L40.50 9.82Q40.52 9.10 40.78 8.41L40.78 8.41L40.78 8.41Q41.05 7.71 41.55 7.18L41.55 7.18L41.55 7.18Q42.11 6.58 42.86 6.33L42.86 6.33L42.86 6.33Q43.61 6.08 44.39 6.08L44.39 6.08L44.39 6.08Q45.26 6.08 45.89 6.37L45.89 6.37L45.89 6.37Q46.52 6.66 46.91 7.12L46.91 7.12L46.91 7.12Q47.31 7.57 47.43 8.13L47.43 8.13L47.43 8.13Q47.56 8.68 47.41 9.20L47.41 9.20L47.41 9.20Q47.26 9.72 46.83 10.13L46.83 10.13L46.83 10.13Q46.40 10.54 45.65 10.72ZM48.69 13.52L48.69 6.24L50.26 6.24L50.26 7.17L50.26 7.17Q50.50 6.68 50.87 6.39L50.87 6.39L50.87 6.39Q51.24 6.10 51.69 6.08L51.69 6.08L51.69 6.08Q52.28 6.03 52.64 6.29L52.64 6.29L52.64 6.29Q53.00 6.55 53.15 6.92L53.15 6.92L53.15 6.92Q53.30 7.29 53.23 7.68L53.23 7.68L53.23 7.68Q53.16 8.06 52.85 8.29L52.85 8.29L52.85 8.29Q52.72 7.94 52.37 7.83L52.37 7.83L52.37 7.83Q52.01 7.73 51.62 7.86L51.62 7.86L51.62 7.86Q51.23 7.99 50.91 8.36L50.91 8.36L50.91 8.36Q50.60 8.72 50.54 9.31L50.54 9.31L50.54 9.31Q50.51 9.65 50.51 9.98L50.51 9.98L50.51 9.98Q50.51 10.30 50.51 10.58L50.51 10.58L50.51 13.52L48.69 13.52ZM60.30 8.96L60.30 8.96L60.30 8.96Q60.19 8.57 59.87 8.30L59.87 8.30L59.87 8.30Q59.56 8.04 59.14 7.90L59.14 7.90L59.14 7.90Q58.72 7.77 58.24 7.78L58.24 7.78L58.24 7.78Q57.76 7.78 57.34 7.97L57.34 7.97L57.34 7.97Q56.91 8.15 56.59 8.51L56.59 8.51L56.59 8.51Q56.27 8.86 56.14 9.41L56.14 9.41L56.14 9.41Q56.04 9.86 56.11 10.32L56.11 10.32L56.11 10.32Q56.18 10.78 56.43 11.15L56.43 11.15L56.43 11.15Q56.69 11.52 57.11 11.76L57.11 11.76L57.11 11.76Q57.54 12.00 58.14 12.00L58.14 12.00L58.14 12.00Q59.28 12.00 59.91 11.17L59.91 11.17L61.24 12.14L61.24 12.14Q60.17 13.64 58.17 13.64L58.17 13.64L58.17 13.64Q57.12 13.64 56.36 13.24L56.36 13.24L56.36 13.24Q55.59 12.84 55.12 12.20L55.12 12.20L55.12 12.20Q54.64 11.56 54.47 10.77L54.47 10.77L54.47 10.77Q54.31 9.98 54.44 9.21L54.44 9.21L54.44 9.21Q54.57 8.43 55.02 7.74L55.02 7.74L55.02 7.74Q55.47 7.04 56.24 6.61L56.24 6.61L56.24 6.61Q56.81 6.29 57.46 6.17L57.46 6.17L57.46 6.17Q58.11 6.05 58.77 6.15L58.77 6.15L58.77 6.15Q59.64 6.27 60.12 6.66L60.12 6.66L60.12 6.66Q60.61 7.06 60.76 7.51L60.76 7.51L60.76 7.51Q60.91 7.97 60.78 8.38L60.78 8.38L60.78 8.38Q60.65 8.79 60.30 8.96ZM62.64 13.52L62.64 7.74L62.64 7.74Q62.66 7.32 62.81 7.04L62.81 7.04L62.81 7.04Q62.96 6.76 63.20 6.59L63.20 6.59L63.20 6.59Q63.43 6.43 63.75 6.35L63.75 6.35L63.75 6.35Q64.06 6.27 64.44 6.27L64.44 6.27L64.44 13.52L62.64 13.52ZM63.55 3.29L63.55 3.29L63.55 3.29Q64.02 3.29 64.36 3.64L64.36 3.64L64.36 3.64Q64.71 3.98 64.71 4.47L64.71 4.47L64.71 4.47Q64.71 4.96 64.37 5.31L64.37 5.31L64.37 5.31Q64.18 5.50 63.92 5.58L63.92 5.58L63.92 5.58Q63.66 5.66 63.40 5.73L63.40 5.73L63.40 5.73Q63.14 5.81 62.92 5.92L62.92 5.92L62.92 5.92Q62.71 6.02 62.62 6.26L62.62 6.26L62.62 6.26Q62.55 6.03 62.48 5.68L62.48 5.68L62.48 5.68Q62.40 5.33 62.38 4.96L62.38 4.96L62.38 4.96Q62.36 4.58 62.42 4.22L62.42 4.22L62.42 4.22Q62.48 3.86 62.72 3.63L62.72 3.63L62.72 3.63Q63.06 3.29 63.55 3.29ZM71.05 10.72L71.05 10.72L71.05 10.72Q70.29 10.92 69.67 10.86L69.67 10.86L69.67 10.86Q69.05 10.81 68.65 10.56L68.65 10.56L68.65 10.56Q68.25 10.32 68.12 9.91L68.12 9.91L68.12 9.91Q67.98 9.49 68.19 8.97L68.19 8.97L68.19 8.97Q68.63 9.34 69.20 9.37L69.20 9.37L69.20 9.37Q69.78 9.41 70.31 9.35L70.31 9.35L70.31 9.35Q70.76 9.31 70.99 9.16L70.99 9.16L70.99 9.16Q71.22 9.00 71.27 8.80L71.27 8.80L71.27 8.80Q71.33 8.60 71.23 8.37L71.23 8.37L71.23 8.37Q71.13 8.15 70.92 7.97L70.92 7.97L70.92 7.97Q70.70 7.78 70.39 7.67L70.39 7.67L70.39 7.67Q70.07 7.56 69.69 7.57L69.69 7.57L69.69 7.57Q69.29 7.60 68.92 7.77L68.92 7.77L68.92 7.77Q68.56 7.94 68.28 8.23L68.28 8.23L68.28 8.23Q68.00 8.53 67.83 8.92L67.83 8.92L67.83 8.92Q67.66 9.31 67.65 9.79L67.65 9.79L67.65 9.79Q67.63 10.18 67.74 10.56L67.74 10.56L67.74 10.56Q67.84 10.93 68.05 11.25L68.05 11.25L68.05 11.25Q68.26 11.56 68.56 11.78L68.56 11.78L68.56 11.78Q68.85 12.00 69.23 12.05L69.23 12.05L69.23 12.05Q69.76 12.15 70.32 11.98L70.32 11.98L70.32 11.98Q70.88 11.82 71.32 11.37L71.32 11.37L72.79 12.08L72.79 12.08Q72.21 12.94 71.43 13.31L71.43 13.31L71.43 13.31Q70.64 13.68 69.64 13.68L69.64 13.68L69.64 13.68Q68.70 13.68 67.99 13.35L67.99 13.35L67.99 13.35Q67.28 13.02 66.81 12.47L66.81 12.47L66.81 12.47Q66.35 11.93 66.11 11.24L66.11 11.24L66.11 11.24Q65.88 10.54 65.90 9.82L65.90 9.82L65.90 9.82Q65.91 9.10 66.18 8.41L66.18 8.41L66.18 8.41Q66.44 7.71 66.95 7.18L66.95 7.18L66.95 7.18Q67.51 6.58 68.26 6.33L68.26 6.33L68.26 6.33Q69.01 6.08 69.79 6.08L69.79 6.08L69.79 6.08Q70.66 6.08 71.29 6.37L71.29 6.37L71.29 6.37Q71.92 6.66 72.31 7.12L72.31 7.12L72.31 7.12Q72.70 7.57 72.83 8.13L72.83 8.13L72.83 8.13Q72.95 8.68 72.81 9.20L72.81 9.20L72.81 9.20Q72.66 9.72 72.23 10.13L72.23 10.13L72.23 10.13Q71.79 10.54 71.05 10.72ZM74.09 13.52L74.09 6.24L75.66 6.24L75.66 7.17L75.66 7.17Q75.89 6.68 76.27 6.39L76.27 6.39L76.27 6.39Q76.64 6.10 77.08 6.08L77.08 6.08L77.08 6.08Q77.67 6.03 78.04 6.29L78.04 6.29L78.04 6.29Q78.40 6.55 78.55 6.92L78.55 6.92L78.55 6.92Q78.69 7.29 78.62 7.68L78.62 7.68L78.62 7.68Q78.55 8.06 78.25 8.29L78.25 8.29L78.25 8.29Q78.12 7.94 77.76 7.83L77.76 7.83L77.76 7.83Q77.41 7.73 77.01 7.86L77.01 7.86L77.01 7.86Q76.62 7.99 76.31 8.36L76.31 8.36L76.31 8.36Q75.99 8.72 75.94 9.31L75.94 9.31L75.94 9.31Q75.91 9.65 75.91 9.98L75.91 9.98L75.91 9.98Q75.91 10.30 75.91 10.58L75.91 10.58L75.91 13.52L74.09 13.52Z"></path></g><defs data-v-29081953=""><!----></defs><g data-v-29081953="" id="b4e4040a-d914-4dc5-accb-b215599a0d81" stroke="none" fill="#39C643" transform="matrix(0.34813372261798076,0,0,0.34813372261798076,38.78988790262537,132.30331841441497)"><path d="M81.263 1.182h-56.99c-15.275 0-20.797 5.312-20.797 21.18v57.192c0 15.373 5.522 20.93 20.796 20.93h56.991c15.403 0 21.515-5.557 21.515-20.93V22.362c0-15.868-5.912-21.18-21.515-21.18zM61.226 29.796h6.995L45.688 71.87h-8.092M70.12 36.538l.009-6.695 22.37 17.635c-.032 2.082.032 4.482 0 6.564L70.13 71.676l.018-6.755L88.508 50.79zM17.746 50.789l18.361 14.132.018 6.755-22.37-17.634c-.032-2.082.032-4.482 0-6.564l22.37-17.635.01 6.695z"></path></g><!----></svg>