<svg data-v-29081953="" xmlns="http://www.w3.org/2000/svg" viewBox="0 0 300 300"><!----><defs data-v-29081953=""><!----></defs><rect data-v-29081953="" fill="transparent" x="0" y="0" width="300px" height="300px" class="logo-background-square"></rect><defs data-v-29081953=""><!----></defs><g data-v-29081953="" id="8aaf65d8-4faf-4541-91be-3e38aa042d96" fill="#000000" transform="matrix(3.264281167848113,0,0,3.264281167848113,17.486503563018175,166.73634443770214)"><path d="M0.77 15.40L3.50 15.40L3.50 11.70L4.44 11.70L5.71 15.40L8.82 15.40L7.03 11.12C7.90 10.57 8.29 9.66 8.29 8.33L8.29 8.18C8.29 5.91 7.13 4.73 4.37 4.73L0.77 4.73ZM3.50 7.01L4.42 7.01C5.31 7.01 5.56 7.32 5.56 8.11L5.56 8.32C5.56 9.10 5.31 9.39 4.44 9.39L3.50 9.39ZM12.18 10.08C12.18 9.30 12.43 9.06 13.05 9.06C13.66 9.06 13.92 9.30 13.92 10.08L13.92 12.17C13.92 12.95 13.66 13.19 13.05 13.19C12.43 13.19 12.18 12.95 12.18 12.17ZM13.05 6.68C10.61 6.68 9.45 7.85 9.45 10.12L9.45 12.12C9.45 14.39 10.61 15.57 13.05 15.57C15.48 15.57 16.65 14.39 16.65 12.12L16.65 10.12C16.65 7.85 15.48 6.68 13.05 6.68ZM17.91 4.59L17.91 15.40L20.47 15.40L20.58 14.91C20.93 15.27 21.46 15.57 22.37 15.57C23.76 15.57 25.09 14.45 25.09 12.26L25.09 10.12C25.09 7.85 24.08 6.68 22.37 6.68C21.64 6.68 21.07 6.85 20.62 7.21L20.62 4.59ZM20.62 10.08C20.62 9.30 20.87 9.06 21.49 9.06C22.11 9.06 22.36 9.30 22.36 10.08L22.36 12.17C22.36 12.91 22.06 13.19 21.49 13.19C20.94 13.19 20.62 12.92 20.62 12.18ZM29.92 4.73L29.92 15.40L32.42 15.40L32.42 9.09L33.66 12.64L35.73 12.64L36.96 9.10L36.96 15.40L39.47 15.40L39.47 4.73L36.50 4.73L34.79 9.67L33.08 4.73ZM45.40 12.60C45.33 13.15 45.14 13.52 44.39 13.52C43.78 13.52 43.47 13.12 43.47 12.42L43.47 11.82L47.96 11.82L47.96 10.02C47.96 7.71 46.76 6.68 44.41 6.68C41.97 6.68 40.80 8.02 40.80 9.98L40.80 12.08C40.80 14.49 41.97 15.57 44.41 15.57C46.90 15.57 47.81 14.50 47.89 12.60ZM44.44 8.68C45.05 8.68 45.40 8.97 45.40 9.74L45.40 10.11L43.47 10.11L43.47 9.79C43.47 8.99 43.78 8.68 44.44 8.68ZM49.15 6.85L49.15 15.40L51.87 15.40L51.87 11.17C51.87 9.83 52.60 9.49 53.34 9.49C53.56 9.49 53.79 9.52 54.00 9.56L54.00 6.75C53.87 6.73 53.75 6.72 53.62 6.72C52.84 6.72 52.08 7.08 51.69 7.66L51.51 6.85ZM59.42 12.01L59.42 12.21C59.42 12.99 59.07 13.19 58.45 13.19C57.83 13.19 57.50 12.95 57.50 12.17L57.50 10.08C57.50 9.30 57.83 9.06 58.45 9.06C59.07 9.06 59.42 9.25 59.42 10.04L59.42 10.25L62.05 10.25L62.05 10.01C62.05 7.74 60.84 6.68 58.41 6.68C55.97 6.68 54.77 7.85 54.77 10.12L54.77 12.12C54.77 14.39 55.96 15.57 58.39 15.57C60.90 15.57 62.05 14.43 62.05 12.17L62.05 12.01ZM65.95 6.85L63.24 6.85L63.24 15.40L65.95 15.40ZM65.95 3.61L63.24 3.61L63.24 6.02L65.95 6.02ZM71.82 12.60C71.75 13.15 71.55 13.52 70.81 13.52C70.20 13.52 69.89 13.12 69.89 12.42L69.89 11.82L74.38 11.82L74.38 10.02C74.38 7.71 73.18 6.68 70.83 6.68C68.39 6.68 67.21 8.02 67.21 9.98L67.21 12.08C67.21 14.49 68.39 15.57 70.83 15.57C73.32 15.57 74.23 14.50 74.31 12.60ZM70.85 8.68C71.47 8.68 71.82 8.97 71.82 9.74L71.82 10.11L69.89 10.11L69.89 9.79C69.89 8.99 70.20 8.68 70.85 8.68ZM75.57 6.85L75.57 15.40L78.29 15.40L78.29 11.17C78.29 9.83 79.02 9.49 79.76 9.49C79.98 9.49 80.21 9.52 80.42 9.56L80.42 6.75C80.29 6.73 80.16 6.72 80.04 6.72C79.25 6.72 78.50 7.08 78.11 7.66L77.92 6.85Z"></path></g><defs data-v-29081953=""><linearGradient data-v-29081953="" gradientTransform="rotate(25)" id="0953b95c-83bc-45b6-8402-df68ac552857" x1="0%" y1="0%" x2="100%" y2="0%"><stop data-v-29081953="" offset="0%" stop-color="#D0A070" stop-opacity="1"></stop><stop data-v-29081953="" offset="100%" stop-color="#6BE371" stop-opacity="1"></stop></linearGradient></defs><g data-v-29081953="" id="8de09227-a017-428a-940d-7045b70c39f8" stroke="url(#0953b95c-83bc-45b6-8402-df68ac552857)" fill="none" transform="matrix(2.168933321051376,0,0,2.168933321051376,95.77666697371559,67.25626708425322)"><style>.st0{fill:none;stroke:#000;stroke-width:2;stroke-miterlimit:10}</style><path class="st0" d="M8 12h9M19 12h5M8 27h9M19 27h5M8 22h6M30 22h3M16 22h12M21 17h4M8 17h11M27 17h15M23 32H8M38.5 25.5L42 29l-3.5 3.5M30.5 25.5L27 29l3.5 3.5M32.5 34l4-10M46 43H4l-2-3v-3h46v3z"></path><g><path class="st0" d="M4 7h42v30H4z"></path></g><path stroke-width="2" stroke-miterlimit="10" stroke-dasharray="2,2" d="M20 40h10"></path></g><!----></svg>