<svg data-v-29081953="" xmlns="http://www.w3.org/2000/svg" viewBox="0 0 300 300"><!----><defs data-v-29081953=""><!----></defs><rect data-v-29081953="" fill="transparent" x="0" y="0" width="300px" height="300px" class="logo-background-square"></rect><defs data-v-29081953=""><!----></defs><g data-v-29081953="" id="ca3b4ec2-cab6-47a6-9189-c08d5ccd1fa5" fill="#000000" transform="matrix(3.3209860385687384,0,0,3.3209860385687384,17.110742130609474,164.21394865063797)"><path d="M8.32 7.07C8.32 5.21 7.03 3.99 5.18 3.99L0.87 3.99L0.87 13.78L2.72 13.78L2.72 10.15L4.35 10.15L6.16 13.78L8.20 13.78L6.22 10.00C7.48 9.62 8.32 8.55 8.32 7.07ZM2.72 5.73L5.00 5.73C5.88 5.73 6.47 6.24 6.47 7.07C6.47 7.90 5.88 8.41 5.00 8.41L2.72 8.41ZM9.18 10.30C9.18 12.49 10.78 13.97 12.82 13.97C14.87 13.97 16.46 12.49 16.46 10.30C16.46 8.12 14.87 6.64 12.82 6.64C10.78 6.64 9.18 8.12 9.18 10.30ZM10.95 10.30C10.95 9.07 11.70 8.26 12.82 8.26C13.94 8.26 14.70 9.07 14.70 10.30C14.70 11.54 13.94 12.35 12.82 12.35C11.70 12.35 10.95 11.54 10.95 10.30ZM17.72 3.98L17.72 13.78L19.46 13.78L19.46 12.80L19.66 12.80C20.02 13.38 20.64 13.97 21.87 13.97C23.60 13.97 25.06 12.43 25.06 10.30C25.06 8.18 23.60 6.64 21.87 6.64C20.64 6.64 20.02 7.22 19.66 7.81L19.49 7.81L19.49 3.98ZM21.39 8.20C22.46 8.20 23.30 8.96 23.30 10.30C23.30 11.65 22.46 12.40 21.39 12.40C20.30 12.40 19.49 11.62 19.49 10.30C19.49 8.99 20.30 8.20 21.39 8.20ZM30.13 3.98L30.13 13.78L31.92 13.78L31.92 5.94L32.09 5.94L34.12 13.78L36.83 13.78L38.86 5.94L39.03 5.94L39.03 13.78L40.82 13.78L40.82 3.98L37.60 3.98L35.56 11.84L35.39 11.84L33.35 3.98ZM42.11 10.25C42.11 12.40 43.61 13.97 45.68 13.97C47.54 13.97 48.36 12.99 48.83 12.26L47.32 11.40C47.08 11.89 46.63 12.43 45.65 12.43C44.65 12.43 43.99 11.72 43.95 10.82L49.08 10.82L49.08 10.14C49.08 8.05 47.67 6.64 45.65 6.64C43.61 6.64 42.11 8.15 42.11 10.25ZM43.96 9.59C44.07 8.76 44.65 8.18 45.64 8.18C46.55 8.18 47.17 8.74 47.26 9.59ZM52.08 6.83L50.34 6.83L50.34 13.78L52.11 13.78L52.11 9.88C52.11 8.90 52.75 8.43 53.65 8.43L54.68 8.43L54.68 6.80L53.98 6.80C53.10 6.80 52.51 7.07 52.25 7.84L52.08 7.84ZM55.30 10.30C55.30 12.46 56.90 13.97 58.91 13.97C60.86 13.97 62.08 12.89 62.41 11.31L60.68 10.88C60.49 11.76 60.00 12.35 58.94 12.35C57.81 12.35 57.06 11.54 57.06 10.30C57.06 9.07 57.88 8.26 58.94 8.26C60.00 8.26 60.55 8.93 60.68 9.74L62.41 9.30C62.05 7.71 60.84 6.64 58.91 6.64C56.90 6.64 55.30 8.15 55.30 10.30ZM63.20 4.82C63.20 5.53 63.74 6.02 64.44 6.02C65.14 6.02 65.69 5.53 65.69 4.82C65.69 4.10 65.14 3.61 64.44 3.61C63.74 3.61 63.20 4.10 63.20 4.82ZM65.32 6.83L63.56 6.83L63.56 13.78L65.32 13.78ZM66.58 10.25C66.58 12.40 68.08 13.97 70.15 13.97C72.02 13.97 72.83 12.99 73.30 12.26L71.79 11.40C71.55 11.89 71.11 12.43 70.13 12.43C69.12 12.43 68.46 11.72 68.42 10.82L73.56 10.82L73.56 10.14C73.56 8.05 72.14 6.64 70.13 6.64C68.08 6.64 66.58 8.15 66.58 10.25ZM68.43 9.59C68.54 8.76 69.12 8.18 70.11 8.18C71.02 8.18 71.64 8.74 71.74 9.59ZM76.55 6.83L74.82 6.83L74.82 13.78L76.58 13.78L76.58 9.88C76.58 8.90 77.22 8.43 78.12 8.43L79.16 8.43L79.16 6.80L78.46 6.80C77.57 6.80 76.99 7.07 76.72 7.84L76.55 7.84Z"></path></g><defs data-v-29081953=""><linearGradient data-v-29081953="" gradientTransform="rotate(25)" id="9a3f2cec-fd3a-4447-aab8-080a26d60cf7" x1="0%" y1="0%" x2="100%" y2="0%"><stop data-v-29081953="" offset="0%" stop-color="#177775" stop-opacity="1"></stop><stop data-v-29081953="" offset="100%" stop-color="#28D2BF" stop-opacity="1"></stop></linearGradient></defs><g data-v-29081953="" id="706aeb99-c79b-485c-b1c5-580c00381b7c" stroke="none" fill="url(#9a3f2cec-fd3a-4447-aab8-080a26d60cf7)" transform="matrix(3.645221103874652,0,0,3.645221103874652,91.67828655463293,65.47193551172668)"><circle cx="7.957" cy="12.389" r="3.926"></circle><path d="M7.771 25.439l-3.793-8.222s-3.979.053-3.979 3.713v4.509h7.772zM8.143 25.439l3.793-8.222s3.979.053 3.979 3.713v4.509H8.143zM7.957 17.216H5.225l2.732 6.048 2.732-6.048zM13.097 11.842l6.249-3.219v.929l-5.266 2.64v.027l5.266 2.64v.929l-6.249-3.219v-.727zM20.226 16.327l3.757-9.765h.916l-3.771 9.765h-.902zM32 12.581l-6.249 3.206v-.929l5.307-2.64v-.027l-5.307-2.64v-.928L32 11.828v.753z"></path></g><!----></svg>