<svg data-v-d3f97b9e="" xmlns="http://www.w3.org/2000/svg" viewBox="0 0 681 90"><!----><!----><!----><g data-v-d3f97b9e="" id="0044f572-f8c2-4e79-be6e-50b938002542" fill="black" transform="matrix(7.159904436827442,0,0,7.159904436827442,167.84583758050417,-2.5417654963823395)"><path d="M0.66 6.47L0.66 6.47L0.66 6.47Q0.66 5.79 0.67 4.58L0.67 4.58L0.67 4.58Q0.68 3.37 0.68 2.68L0.68 2.68L0.68 2.68Q1.37 2.58 2.14 2.51L2.14 2.51L2.14 2.51Q2.91 2.45 3.49 2.45L3.49 2.45L3.49 2.45Q3.99 2.45 4.32 2.47L4.32 2.47L4.32 2.47Q4.66 2.48 5.05 2.53L5.05 2.53L5.05 2.53Q5.44 2.59 5.70 2.69L5.70 2.69L5.70 2.69Q5.95 2.79 6.20 2.96L6.20 2.96L6.20 2.96Q6.46 3.13 6.60 3.38L6.60 3.38L6.60 3.38Q6.74 3.63 6.83 4.00L6.83 4.00L6.83 4.00Q6.92 4.36 6.92 4.83L6.92 4.83L6.92 4.83Q6.92 5.57 6.54 6.13L6.54 6.13L6.54 6.13Q6.15 6.70 5.47 7.02L5.47 7.02L5.47 7.02Q5.93 7.18 6.22 7.67L6.22 7.67L6.22 7.67Q6.90 9.01 7.31 10.75L7.31 10.75L7.31 10.75Q6.68 10.82 5.88 10.82L5.88 10.82L5.88 10.82Q5.30 10.82 4.78 10.79L4.78 10.79L4.78 10.79Q4.72 10.79 4.66 10.75L4.66 10.75L4.66 10.75Q4.59 10.71 4.57 10.65L4.57 10.65L4.57 10.65Q3.91 8.63 3.54 7.39L3.54 7.39L3.36 7.39L3.36 7.39Q3.36 7.77 3.39 8.96L3.39 8.96L3.39 8.96Q3.41 10.14 3.42 10.75L3.42 10.75L3.42 10.75Q2.86 10.77 2.22 10.77L2.22 10.77L2.22 10.77Q1.64 10.77 0.82 10.75L0.82 10.75L0.82 10.75Q0.76 10.75 0.72 10.71L0.72 10.71L0.72 10.71Q0.68 10.67 0.68 10.61L0.68 10.61L0.68 10.61Q0.68 9.98 0.67 8.57L0.67 8.57L0.67 8.57Q0.66 7.16 0.66 6.47ZM3.35 5.70L3.35 5.70L3.58 5.70L3.58 5.70Q3.91 5.70 4.11 5.54L4.11 5.54L4.11 5.54Q4.31 5.38 4.31 5.11L4.31 5.11L4.31 5.11Q4.31 4.78 4.17 4.62L4.17 4.62L4.17 4.62Q4.03 4.45 3.68 4.45L3.68 4.45L3.68 4.45Q3.51 4.45 3.36 4.46L3.36 4.46L3.36 4.46Q3.35 5.26 3.35 5.70ZM7.55 6.64L7.55 6.64L7.55 6.64Q7.55 5.65 7.76 4.87L7.76 4.87L7.76 4.87Q7.98 4.09 8.38 3.58L8.38 3.58L8.38 3.58Q8.79 3.06 9.36 2.77L9.36 2.77L9.36 2.77Q9.94 2.49 10.66 2.45L10.66 2.45L10.66 2.45Q11.33 2.45 11.85 2.54L11.85 2.54L11.85 2.54Q12.38 2.63 12.81 2.84L12.81 2.84L12.81 2.84Q13.25 3.04 13.56 3.36L13.56 3.36L13.56 3.36Q13.86 3.69 14.08 4.15L14.08 4.15L14.08 4.15Q14.29 4.62 14.39 5.24L14.39 5.24L14.39 5.24Q14.49 5.85 14.49 6.64L14.49 6.64L14.49 6.64Q14.49 7.64 14.27 8.42L14.27 8.42L14.27 8.42Q14.05 9.19 13.64 9.71L13.64 9.71L13.64 9.71Q13.23 10.23 12.65 10.51L12.65 10.51L12.65 10.51Q12.08 10.79 11.35 10.83L11.35 10.83L11.35 10.83Q10.68 10.83 10.16 10.74L10.16 10.74L10.16 10.74Q9.64 10.65 9.21 10.45L9.21 10.45L9.21 10.45Q8.78 10.25 8.47 9.92L8.47 9.92L8.47 9.92Q8.17 9.60 7.96 9.14L7.96 9.14L7.96 9.14Q7.75 8.67 7.65 8.05L7.65 8.05L7.65 8.05Q7.55 7.44 7.55 6.64ZM10.40 6.64L10.40 6.64L10.40 6.64Q10.40 7.12 10.44 7.46L10.44 7.46L10.44 7.46Q10.47 7.79 10.52 7.99L10.52 7.99L10.52 7.99Q10.57 8.18 10.65 8.29L10.65 8.29L10.65 8.29Q10.74 8.39 10.82 8.42L10.82 8.42L10.82 8.42Q10.91 8.45 11.03 8.45L11.03 8.45L11.03 8.45Q11.16 8.45 11.24 8.42L11.24 8.42L11.24 8.42Q11.32 8.39 11.40 8.29L11.40 8.29L11.40 8.29Q11.48 8.18 11.53 7.99L11.53 7.99L11.53 7.99Q11.58 7.79 11.61 7.46L11.61 7.46L11.61 7.46Q11.63 7.12 11.63 6.64L11.63 6.64L11.63 6.64Q11.63 6.25 11.61 5.95L11.61 5.95L11.61 5.95Q11.59 5.65 11.55 5.46L11.55 5.46L11.55 5.46Q11.50 5.26 11.45 5.14L11.45 5.14L11.45 5.14Q11.40 5.01 11.32 4.95L11.32 4.95L11.32 4.95Q11.24 4.89 11.17 4.87L11.17 4.87L11.17 4.87Q11.09 4.84 10.99 4.84L10.99 4.84L10.99 4.84Q10.89 4.84 10.82 4.86L10.82 4.86L10.82 4.86Q10.75 4.88 10.68 4.95L10.68 4.95L10.68 4.95Q10.61 5.01 10.56 5.14L10.56 5.14L10.56 5.14Q10.51 5.26 10.48 5.46L10.48 5.46L10.48 5.46Q10.44 5.65 10.42 5.95L10.42 5.95L10.42 5.95Q10.40 6.24 10.40 6.64ZM17.91 5.54L17.91 5.54L17.91 5.54Q17.91 5.54 18.02 5.54L18.02 5.54L18.02 5.54Q18.35 5.54 18.57 5.39L18.57 5.39L18.57 5.39Q18.80 5.24 18.80 4.96L18.80 4.96L18.80 4.96Q18.80 4.70 18.59 4.56L18.59 4.56L18.59 4.56Q18.38 4.41 18.09 4.41L18.09 4.41L18.09 4.41Q17.98 4.41 17.93 4.42L17.93 4.42L17.93 4.42Q17.93 4.57 17.92 4.94L17.92 4.94L17.92 4.94Q17.92 5.31 17.91 5.54ZM18.28 7.57L17.93 7.57L17.93 7.57Q17.93 7.93 17.95 8.67L17.95 8.67L18.18 8.67L18.18 8.67Q18.56 8.67 18.73 8.53L18.73 8.53L18.73 8.53Q18.89 8.39 18.89 8.12L18.89 8.12L18.89 8.12Q18.89 7.88 18.72 7.72L18.72 7.72L18.72 7.72Q18.55 7.57 18.28 7.57L18.28 7.57ZM15.23 6.47L15.23 6.47L15.23 6.47Q15.23 5.79 15.24 4.58L15.24 4.58L15.24 4.58Q15.26 3.37 15.26 2.68L15.26 2.68L15.26 2.68Q16.77 2.45 17.92 2.45L17.92 2.45L17.92 2.45Q18.39 2.45 18.71 2.47L18.71 2.47L18.71 2.47Q19.03 2.48 19.40 2.53L19.40 2.53L19.40 2.53Q19.78 2.59 20.02 2.69L20.02 2.69L20.02 2.69Q20.27 2.79 20.51 2.96L20.51 2.96L20.51 2.96Q20.76 3.13 20.90 3.38L20.90 3.38L20.90 3.38Q21.04 3.63 21.13 4.00L21.13 4.00L21.13 4.00Q21.22 4.36 21.22 4.83L21.22 4.83L21.22 4.83Q21.22 5.90 20.43 6.59L20.43 6.59L20.43 6.59Q21 6.91 21.31 7.35L21.31 7.35L21.31 7.35Q21.63 7.78 21.63 8.27L21.63 8.27L21.63 8.27Q21.63 8.73 21.54 9.10L21.54 9.10L21.54 9.10Q21.45 9.46 21.30 9.73L21.30 9.73L21.30 9.73Q21.14 9.99 20.90 10.19L20.90 10.19L20.90 10.19Q20.66 10.38 20.39 10.50L20.39 10.50L20.39 10.50Q20.12 10.62 19.77 10.69L19.77 10.69L19.77 10.69Q19.42 10.77 19.07 10.79L19.07 10.79L19.07 10.79Q18.73 10.82 18.31 10.82L18.31 10.82L18.31 10.82Q16.85 10.82 15.39 10.67L15.39 10.67L15.39 10.67Q15.34 10.65 15.30 10.60L15.30 10.60L15.30 10.60Q15.26 10.56 15.26 10.50L15.26 10.50L15.26 10.50Q15.26 9.87 15.24 8.52L15.24 8.52L15.24 8.52Q15.23 7.16 15.23 6.47ZM26.36 6.65L26.36 6.65L26.36 6.65Q26.36 4.73 26.41 2.55L26.41 2.55L26.41 2.55Q27.06 2.52 27.54 2.52L27.54 2.52L27.54 2.52Q28.12 2.52 28.72 2.55L28.72 2.55L28.72 2.55Q28.82 2.55 28.88 2.68L28.88 2.68L30.59 6.18L32.31 2.68L32.31 2.68Q32.40 2.56 32.47 2.55L32.47 2.55L32.47 2.55Q32.90 2.52 33.43 2.52L33.43 2.52L33.43 2.52Q34.01 2.52 34.70 2.55L34.70 2.55L34.70 2.55Q34.76 2.55 34.80 2.59L34.80 2.59L34.80 2.59Q34.84 2.63 34.84 2.68L34.84 2.68L34.84 2.68Q34.89 5.25 34.89 6.65L34.89 6.65L34.89 6.65Q34.89 8.56 34.84 10.75L34.84 10.75L34.84 10.75Q34.25 10.78 33.78 10.78L33.78 10.78L33.78 10.78Q33.35 10.78 32.51 10.75L32.51 10.75L32.51 10.75Q32.46 10.75 32.42 10.71L32.42 10.71L32.42 10.71Q32.38 10.67 32.38 10.61L32.38 10.61L32.38 10.61Q32.36 10.23 32.34 9.47L32.34 9.47L32.34 9.47Q32.32 8.70 32.31 8.08L32.31 8.08L32.31 8.08Q32.30 7.45 32.29 6.88L32.29 6.88L30.73 10.07L30.58 10.09L30.45 10.07L28.96 7.04L29.01 10.75L29.01 10.75Q28.36 10.78 27.88 10.78L27.88 10.78L27.88 10.78Q27.39 10.78 26.55 10.75L26.55 10.75L26.55 10.75Q26.50 10.75 26.46 10.71L26.46 10.71L26.46 10.71Q26.41 10.67 26.41 10.61L26.41 10.61L26.41 10.61Q26.36 8.04 26.36 6.65ZM35.88 6.65L35.88 6.65L35.88 6.65Q35.88 4.73 35.93 2.55L35.93 2.55L35.93 2.55Q36.58 2.52 38.77 2.52L38.77 2.52L38.77 2.52Q40.31 2.52 41.15 2.55L41.15 2.55L41.15 2.55Q41.21 2.55 41.25 2.59L41.25 2.59L41.25 2.59Q41.29 2.63 41.29 2.68L41.29 2.68L41.29 2.68Q41.30 3.52 41.30 3.87L41.30 3.87L41.30 3.87Q41.30 4.40 41.29 4.87L41.29 4.87L41.29 4.87Q40.71 4.90 39.12 4.90L39.12 4.90L39.12 4.90Q38.83 4.90 38.60 4.89L38.60 4.89L38.60 4.89Q38.59 5.37 38.59 5.61L38.59 5.61L38.59 5.61Q39.81 5.62 40.22 5.64L40.22 5.64L40.22 5.64Q40.28 5.64 40.32 5.68L40.32 5.68L40.32 5.68Q40.36 5.72 40.36 5.77L40.36 5.77L40.36 5.77Q40.37 6.33 40.37 6.80L40.37 6.80L40.37 6.80Q40.37 7.22 40.36 7.71L40.36 7.71L38.59 7.71L38.59 7.71Q38.59 7.95 38.60 8.43L38.60 8.43L38.76 8.43L38.76 8.43Q40.43 8.43 41.18 8.45L41.18 8.45L41.18 8.45Q41.23 8.45 41.28 8.49L41.28 8.49L41.28 8.49Q41.32 8.53 41.32 8.59L41.32 8.59L41.32 8.59Q41.33 9.42 41.33 9.77L41.33 9.77L41.33 9.77Q41.33 10.31 41.32 10.78L41.32 10.78L41.32 10.78Q40.67 10.81 38.97 10.81L38.97 10.81L38.97 10.81Q38.63 10.81 37.53 10.79L37.53 10.79L37.53 10.79Q36.43 10.76 36.07 10.75L36.07 10.75L36.07 10.75Q36.01 10.75 35.97 10.71L35.97 10.71L35.97 10.71Q35.93 10.67 35.93 10.61L35.93 10.61L35.93 10.61Q35.88 8.04 35.88 6.65ZM42.11 6.47L42.11 6.47L42.11 6.47Q42.11 5.79 42.12 4.58L42.12 4.58L42.12 4.58Q42.14 3.37 42.14 2.68L42.14 2.68L42.14 2.68Q42.82 2.58 43.59 2.51L43.59 2.51L43.59 2.51Q44.36 2.45 44.94 2.45L44.94 2.45L44.94 2.45Q45.44 2.45 45.78 2.47L45.78 2.47L45.78 2.47Q46.12 2.48 46.51 2.53L46.51 2.53L46.51 2.53Q46.90 2.59 47.15 2.69L47.15 2.69L47.15 2.69Q47.40 2.79 47.66 2.96L47.66 2.96L47.66 2.96Q47.91 3.13 48.05 3.38L48.05 3.38L48.05 3.38Q48.19 3.63 48.28 4.00L48.28 4.00L48.28 4.00Q48.37 4.36 48.37 4.83L48.37 4.83L48.37 4.83Q48.37 5.57 47.99 6.13L47.99 6.13L47.99 6.13Q47.61 6.70 46.92 7.02L46.92 7.02L46.92 7.02Q47.39 7.18 47.68 7.67L47.68 7.67L47.68 7.67Q48.36 9.01 48.76 10.75L48.76 10.75L48.76 10.75Q48.14 10.82 47.33 10.82L47.33 10.82L47.33 10.82Q46.75 10.82 46.23 10.79L46.23 10.79L46.23 10.79Q46.17 10.79 46.11 10.75L46.11 10.75L46.11 10.75Q46.05 10.71 46.03 10.65L46.03 10.65L46.03 10.65Q45.36 8.63 44.99 7.39L44.99 7.39L44.81 7.39L44.81 7.39Q44.82 7.77 44.84 8.96L44.84 8.96L44.84 8.96Q44.87 10.14 44.87 10.75L44.87 10.75L44.87 10.75Q44.31 10.77 43.67 10.77L43.67 10.77L43.67 10.77Q43.09 10.77 42.27 10.75L42.27 10.75L42.27 10.75Q42.22 10.75 42.18 10.71L42.18 10.71L42.18 10.71Q42.14 10.67 42.14 10.61L42.14 10.61L42.14 10.61Q42.14 9.98 42.12 8.57L42.12 8.57L42.12 8.57Q42.11 7.16 42.11 6.47ZM44.80 5.70L44.80 5.70L45.04 5.70L45.04 5.70Q45.36 5.70 45.56 5.54L45.56 5.54L45.56 5.54Q45.76 5.38 45.76 5.11L45.76 5.11L45.76 5.11Q45.76 4.78 45.62 4.62L45.62 4.62L45.62 4.62Q45.49 4.45 45.14 4.45L45.14 4.45L45.14 4.45Q44.96 4.45 44.81 4.46L44.81 4.46L44.81 4.46Q44.80 5.26 44.80 5.70ZM49 6.64L49 6.64L49 6.64Q49 5.69 49.17 4.97L49.17 4.97L49.17 4.97Q49.35 4.26 49.66 3.78L49.66 3.78L49.66 3.78Q49.97 3.30 50.44 3.00L50.44 3.00L50.44 3.00Q50.91 2.70 51.48 2.58L51.48 2.58L51.48 2.58Q52.04 2.45 52.76 2.45L52.76 2.45L52.76 2.45Q53.14 2.45 53.48 2.51L53.48 2.51L53.48 2.51Q53.82 2.56 54.32 2.68L54.32 2.68L54.02 4.83L52.76 4.74L52.76 4.74Q52.60 4.73 52.48 4.77L52.48 4.77L52.48 4.77Q52.35 4.81 52.23 4.93L52.23 4.93L52.23 4.93Q52.11 5.05 52.03 5.26L52.03 5.26L52.03 5.26Q51.95 5.47 51.91 5.82L51.91 5.82L51.91 5.82Q51.86 6.17 51.86 6.64L51.86 6.64L51.86 6.64Q51.86 7.12 51.90 7.47L51.90 7.47L51.90 7.47Q51.94 7.82 52.02 8.03L52.02 8.03L52.02 8.03Q52.09 8.24 52.21 8.36L52.21 8.36L52.21 8.36Q52.33 8.48 52.46 8.52L52.46 8.52L52.46 8.52Q52.59 8.56 52.76 8.55L52.76 8.55L54.02 8.47L54.30 10.63L54.30 10.63Q53.49 10.78 52.73 10.78L52.73 10.78L52.73 10.78Q52.33 10.78 52.00 10.75L52.00 10.75L52.00 10.75Q51.66 10.72 51.34 10.65L51.34 10.65L51.34 10.65Q51.01 10.58 50.74 10.47L50.74 10.47L50.74 10.47Q50.48 10.35 50.23 10.18L50.23 10.18L50.23 10.18Q49.99 10.00 49.80 9.77L49.80 9.77L49.80 9.77Q49.61 9.54 49.46 9.24L49.46 9.24L49.46 9.24Q49.30 8.93 49.21 8.54L49.21 8.54L49.21 8.54Q49.11 8.16 49.05 7.69L49.05 7.69L49.05 7.69Q49 7.21 49 6.64ZM54.95 6.65L54.95 6.65L54.95 6.65Q54.95 4.73 55.00 2.55L55.00 2.55L55.00 2.55Q55.65 2.52 56.20 2.52L56.20 2.52L56.20 2.52Q56.76 2.52 57.60 2.55L57.60 2.55L57.60 2.55Q57.65 2.55 57.70 2.59L57.70 2.59L57.70 2.59Q57.74 2.63 57.74 2.68L57.74 2.68L57.74 2.68Q57.79 5.25 57.79 6.65L57.79 6.65L57.79 6.65Q57.79 8.56 57.74 10.75L57.74 10.75L57.74 10.75Q57.09 10.78 56.54 10.78L56.54 10.78L56.54 10.78Q55.98 10.78 55.14 10.75L55.14 10.75L55.14 10.75Q55.08 10.75 55.04 10.71L55.04 10.71L55.04 10.71Q55.00 10.67 55.00 10.61L55.00 10.61L55.00 10.61Q54.95 8.04 54.95 6.65ZM58.78 6.65L58.78 6.65L58.78 6.65Q58.78 4.73 58.83 2.55L58.83 2.55L58.83 2.55Q59.48 2.52 61.67 2.52L61.67 2.52L61.67 2.52Q63.22 2.52 64.05 2.55L64.05 2.55L64.05 2.55Q64.11 2.55 64.15 2.59L64.15 2.59L64.15 2.59Q64.19 2.63 64.19 2.68L64.19 2.68L64.19 2.68Q64.20 3.52 64.20 3.87L64.20 3.87L64.20 3.87Q64.20 4.40 64.19 4.87L64.19 4.87L64.19 4.87Q63.61 4.90 62.02 4.90L62.02 4.90L62.02 4.90Q61.73 4.90 61.50 4.89L61.50 4.89L61.50 4.89Q61.49 5.37 61.49 5.61L61.49 5.61L61.49 5.61Q62.71 5.62 63.12 5.64L63.12 5.64L63.12 5.64Q63.18 5.64 63.22 5.68L63.22 5.68L63.22 5.68Q63.26 5.72 63.26 5.77L63.26 5.77L63.26 5.77Q63.27 6.33 63.27 6.80L63.27 6.80L63.27 6.80Q63.27 7.22 63.26 7.71L63.26 7.71L61.49 7.71L61.49 7.71Q61.49 7.95 61.50 8.43L61.50 8.43L61.66 8.43L61.66 8.43Q63.33 8.43 64.08 8.45L64.08 8.45L64.08 8.45Q64.13 8.45 64.18 8.49L64.18 8.49L64.18 8.49Q64.22 8.53 64.22 8.59L64.22 8.59L64.22 8.59Q64.23 9.42 64.23 9.77L64.23 9.77L64.23 9.77Q64.23 10.31 64.22 10.78L64.22 10.78L64.22 10.78Q63.57 10.81 61.87 10.81L61.87 10.81L61.87 10.81Q61.53 10.81 60.43 10.79L60.43 10.79L60.43 10.79Q59.33 10.76 58.97 10.75L58.97 10.75L58.97 10.75Q58.91 10.75 58.87 10.71L58.87 10.71L58.87 10.71Q58.83 10.67 58.83 10.61L58.83 10.61L58.83 10.61Q58.78 8.04 58.78 6.65ZM65.01 6.47L65.01 6.47L65.01 6.47Q65.01 5.79 65.02 4.58L65.02 4.58L65.02 4.58Q65.04 3.37 65.04 2.68L65.04 2.68L65.04 2.68Q65.72 2.58 66.49 2.51L66.49 2.51L66.49 2.51Q67.26 2.45 67.84 2.45L67.84 2.45L67.84 2.45Q68.34 2.45 68.68 2.47L68.68 2.47L68.68 2.47Q69.02 2.48 69.41 2.53L69.41 2.53L69.41 2.53Q69.80 2.59 70.05 2.69L70.05 2.69L70.05 2.69Q70.30 2.79 70.56 2.96L70.56 2.96L70.56 2.96Q70.81 3.13 70.95 3.38L70.95 3.38L70.95 3.38Q71.09 3.63 71.18 4.00L71.18 4.00L71.18 4.00Q71.27 4.36 71.27 4.83L71.27 4.83L71.27 4.83Q71.27 5.57 70.89 6.13L70.89 6.13L70.89 6.13Q70.51 6.70 69.82 7.02L69.82 7.02L69.82 7.02Q70.29 7.18 70.58 7.67L70.58 7.67L70.58 7.67Q71.26 9.01 71.66 10.75L71.66 10.75L71.66 10.75Q71.04 10.82 70.23 10.82L70.23 10.82L70.23 10.82Q69.65 10.82 69.14 10.79L69.14 10.79L69.14 10.79Q69.07 10.79 69.01 10.75L69.01 10.75L69.01 10.75Q68.95 10.71 68.93 10.65L68.93 10.65L68.93 10.65Q68.26 8.63 67.89 7.39L67.89 7.39L67.71 7.39L67.71 7.39Q67.72 7.77 67.74 8.96L67.74 8.96L67.74 8.96Q67.77 10.14 67.77 10.75L67.77 10.75L67.77 10.75Q67.21 10.77 66.57 10.77L66.57 10.77L66.57 10.77Q65.99 10.77 65.17 10.75L65.17 10.75L65.17 10.75Q65.12 10.75 65.08 10.71L65.08 10.71L65.08 10.71Q65.04 10.67 65.04 10.61L65.04 10.61L65.04 10.61Q65.04 9.98 65.02 8.57L65.02 8.57L65.02 8.57Q65.01 7.16 65.01 6.47ZM67.70 5.70L67.70 5.70L67.94 5.70L67.94 5.70Q68.26 5.70 68.46 5.54L68.46 5.54L68.46 5.54Q68.66 5.38 68.66 5.11L68.66 5.11L68.66 5.11Q68.66 4.78 68.52 4.62L68.52 4.62L68.52 4.62Q68.39 4.45 68.04 4.45L68.04 4.45L68.04 4.45Q67.86 4.45 67.71 4.46L67.71 4.46L67.71 4.46Q67.70 5.26 67.70 5.70Z"></path></g><!----><g data-v-d3f97b9e="" id="5602333b-0303-4d02-9cf9-748de753ec22" transform="matrix(4.767707010539777,0,0,4.767707010539777,0.7180736195694664,-30.72369084482824)" stroke="none" fill="black"><circle cx="7.957" cy="12.389" r="3.926"></circle><path d="M7.771 25.439l-3.793-8.222s-3.979.053-3.979 3.713v4.509h7.772zM8.143 25.439l3.793-8.222s3.979.053 3.979 3.713v4.509H8.143zM7.957 17.216H5.225l2.732 6.048 2.732-6.048zM13.097 11.842l6.249-3.219v.929l-5.266 2.64v.027l5.266 2.64v.929l-6.249-3.219v-.727zM20.226 16.327l3.757-9.765h.916l-3.771 9.765h-.902zM32 12.581l-6.249 3.206v-.929l5.307-2.64v-.027l-5.307-2.64v-.928L32 11.828v.753z"></path></g><!----></svg>