<svg data-v-29081953="" xmlns="http://www.w3.org/2000/svg" viewBox="0 0 300 300"><!----><defs data-v-29081953=""><!----></defs><rect data-v-29081953="" fill="#344731" x="0" y="0" width="300px" height="300px" class="logo-background-square"></rect><defs data-v-29081953=""><!----></defs><g data-v-29081953="" id="dfa159bc-4bfb-4d46-a352-0b00eb4eee3c" fill="#FFFFFF" transform="matrix(1.7077175697865352,0,0,1.7077175697865352,20,169.45977011494253)"><path d="M3.50 12.25L0 12.25L0 0L10.50 0L10.50 1.75L12.25 1.75L12.25 7L8.75 7L8.75 8.75L10.50 8.75L10.50 10.50L12.25 10.50L12.25 12.25L7 12.25L7 10.50L5.25 10.50L5.25 8.75L3.50 8.75L3.50 12.25ZM3.50 1.75L3.50 7L7 7L7 5.25L8.75 5.25L8.75 1.75L3.50 1.75ZM24.50 12.25L15.75 12.25L15.75 10.50L14 10.50L14 5.25L15.75 5.25L15.75 3.50L24.50 3.50L24.50 5.25L26.25 5.25L26.25 10.50L24.50 10.50L24.50 12.25ZM17.50 5.25L17.50 10.50L22.75 10.50L22.75 5.25L17.50 5.25ZM38.50 12.25L29.75 12.25L29.75 10.50L28 10.50L28 0L31.50 0L31.50 3.50L38.50 3.50L38.50 5.25L40.25 5.25L40.25 10.50L38.50 10.50L38.50 12.25ZM31.50 5.25L31.50 10.50L36.75 10.50L36.75 5.25L31.50 5.25ZM59.50 12.25L56 12.25L56 0L59.50 0L59.50 1.75L61.25 1.75L61.25 3.50L63 3.50L63 1.75L64.75 1.75L64.75 0L68.25 0L68.25 12.25L64.75 12.25L64.75 5.25L63 5.25L63 8.75L61.25 8.75L61.25 5.25L59.50 5.25L59.50 12.25ZM80.50 12.25L71.75 12.25L71.75 10.50L70 10.50L70 5.25L71.75 5.25L71.75 3.50L80.50 3.50L80.50 5.25L82.25 5.25L82.25 8.75L73.50 8.75L73.50 10.50L80.50 10.50L80.50 12.25ZM73.50 5.25L73.50 7L78.75 7L78.75 5.25L73.50 5.25ZM89.25 3.50L89.25 5.25L91 5.25L91 7L89.25 7L89.25 12.25L85.75 12.25L85.75 3.50L89.25 3.50ZM91 3.50L96.25 3.50L96.25 5.25L91 5.25L91 3.50ZM110.25 12.25L99.75 12.25L99.75 10.50L98 10.50L98 5.25L99.75 5.25L99.75 3.50L110.25 3.50L110.25 5.25L101.50 5.25L101.50 10.50L110.25 10.50L110.25 12.25ZM120.75 1.75L117.25 1.75L117.25 0L120.75 0L120.75 1.75ZM124.25 12.25L113.75 12.25L113.75 10.50L117.25 10.50L117.25 5.25L115.50 5.25L115.50 3.50L120.75 3.50L120.75 10.50L124.25 10.50L124.25 12.25ZM136.50 12.25L127.75 12.25L127.75 10.50L126 10.50L126 5.25L127.75 5.25L127.75 3.50L136.50 3.50L136.50 5.25L138.25 5.25L138.25 8.75L129.50 8.75L129.50 10.50L136.50 10.50L136.50 12.25ZM129.50 5.25L129.50 7L134.75 7L134.75 5.25L129.50 5.25ZM145.25 3.50L145.25 5.25L147 5.25L147 7L145.25 7L145.25 12.25L141.75 12.25L141.75 3.50L145.25 3.50ZM147 3.50L152.25 3.50L152.25 5.25L147 5.25L147 3.50Z"></path></g><defs data-v-29081953=""><!----></defs><g data-v-29081953="" id="183f87dd-9bc4-4a6d-a6b5-ecc1726b9b2d" stroke="none" fill="#629A40" transform="matrix(2.2164053024731527,0,0,2.2164053024731527,114.53862433962351,95.0766395653185)"><circle cx="7.957" cy="12.389" r="3.926"></circle><path d="M7.771 25.439l-3.793-8.222s-3.979.053-3.979 3.713v4.509h7.772zM8.143 25.439l3.793-8.222s3.979.053 3.979 3.713v4.509H8.143zM7.957 17.216H5.225l2.732 6.048 2.732-6.048zM13.097 11.842l6.249-3.219v.929l-5.266 2.64v.027l5.266 2.64v.929l-6.249-3.219v-.727zM20.226 16.327l3.757-9.765h.916l-3.771 9.765h-.902zM32 12.581l-6.249 3.206v-.929l5.307-2.64v-.027l-5.307-2.64v-.928L32 11.828v.753z"></path></g><!----></svg>