<svg data-v-d3f97b9e="" xmlns="http://www.w3.org/2000/svg" viewBox="0 0 60.12499809265137 60"><!----><!----><!----><!----><g data-v-d3f97b9e="" id="909836c1-8cd7-4391-b412-cdf1024076be" transform="matrix(1.25,0,0,1.25,0,0)" stroke="none" fill="black"><path d="M39 4H9c-.5 0-1 .4-1 1v23c0 .6.4 1 1 1h30c.6 0 1-.4 1-1V5c0-.6-.4-1-1-1zm-1 23H10V6h28v21z"></path><path d="M48 41c0-.1 0-.3-.1-.4L44 31.8V1c0-.6-.4-1-1-1H5c-.5 0-1 .4-1 1v30.8L.1 40.6 0 41v3.7C0 46.6 1.5 48 3.3 48h41.5c1.8 0 3.3-1.5 3.3-3.3L48 41zM6 2h36v29H6V2zm-.3 31h36.7l3.1 7h-43l3.2-7zM46 44.8c0 .7-.6 1.3-1.3 1.3H3.3C2.6 46 2 45.4 2 44.8V42h44v2.8z"></path><path d="M25.9 36.2h-3.8c-.6 0-1 .4-1 1s.4 1 1 1h3.8c.6 0 1-.4 1-1s-.4-1-1-1zM18.6 18.2l-5.1-2.4v-.1l5.1-2.4v-1.6l-6.9 3.2v1.8l6.9 3.2zM27.9 9.7h-1.5l-6.3 13.6h1.5zM36.3 14.9l-6.9-3.2v1.6l5.1 2.4v.1l-5.1 2.4v1.7l6.9-3.2z"></path></g><!----></svg>