<svg data-v-29081953="" xmlns="http://www.w3.org/2000/svg" viewBox="0 0 300 300"><!----><defs data-v-29081953=""><!----></defs><rect data-v-29081953="" fill="transparent" x="0" y="0" width="300px" height="300px" class="logo-background-square"></rect><!----><defs data-v-29081953=""><linearGradient data-v-29081953="" gradientTransform="rotate(25)" id="cbdc64be-de90-487f-8363-7218140eb590" x1="0%" y1="0%" x2="100%" y2="0%"><stop data-v-29081953="" offset="0%" stop-color="#D0A070" stop-opacity="1"></stop><stop data-v-29081953="" offset="100%" stop-color="#6BE371" stop-opacity="1"></stop></linearGradient></defs><g data-v-29081953="" id="f738a5d4-b6fb-433d-8934-a92868dd1270" fill="none" stroke="url(#cbdc64be-de90-487f-8363-7218140eb590)" transform="matrix(4.782608695652174,0,0,4.782608695652174,30.434782608695652,30.434782608695656)"><style>.st0{fill:none;stroke:#000;stroke-width:2;stroke-miterlimit:10}</style><path class="st0" d="M8 12h9M19 12h5M8 27h9M19 27h5M8 22h6M30 22h3M16 22h12M21 17h4M8 17h11M27 17h15M23 32H8M38.5 25.5L42 29l-3.5 3.5M30.5 25.5L27 29l3.5 3.5M32.5 34l4-10M46 43H4l-2-3v-3h46v3z"></path><g><path class="st0" d="M4 7h42v30H4z"></path></g><path stroke-width="2" stroke-miterlimit="10" stroke-dasharray="2,2" d="M20 40h10"></path></g><!----></svg>