<svg data-v-d3f97b9e="" xmlns="http://www.w3.org/2000/svg" viewBox="0 0 76.66666666666667 60"><!----><!----><!----><!----><g data-v-d3f97b9e="" id="c5f40582-ed42-4d67-98d0-c3098f778104" transform="matrix(1.6666666666666667,0,0,1.6666666666666667,-3.333333651224777,-11.666666666666671)" stroke="none" fill="white"><style>.st0{fill:none;stroke:#000;stroke-width:2;stroke-miterlimit:10}</style><path class="st0" d="M8 12h9M19 12h5M8 27h9M19 27h5M8 22h6M30 22h3M16 22h12M21 17h4M8 17h11M27 17h15M23 32H8M38.5 25.5L42 29l-3.5 3.5M30.5 25.5L27 29l3.5 3.5M32.5 34l4-10M46 43H4l-2-3v-3h46v3z"></path><g><path class="st0" d="M4 7h42v30H4z"></path></g><path stroke-width="2" stroke-miterlimit="10" stroke-dasharray="2,2" d="M20 40h10"></path></g><!----></svg>