<svg data-v-d3f97b9e="" xmlns="http://www.w3.org/2000/svg" viewBox="0 0 556 90"><!----><!----><!----><g data-v-d3f97b9e="" id="3b2c74ea-833e-42a1-9176-5aced9b74a64" fill="black" transform="matrix(5.899704970490485,0,0,5.899704970490485,104.81877363668596,-13.023597656155488)"><path d="M4.09 11.96L3.35 11.96L3.35 14.64L3.35 14.64Q3.19 14.69 2.86 14.73L2.86 14.73L2.86 14.73Q2.53 14.77 2.21 14.77L2.21 14.77L2.21 14.77Q1.89 14.77 1.65 14.72L1.65 14.72L1.65 14.72Q1.40 14.67 1.24 14.55L1.24 14.55L1.24 14.55Q1.08 14.42 0.99 14.20L0.99 14.20L0.99 14.20Q0.91 13.97 0.91 13.61L0.91 13.61L0.91 7.01L0.91 7.01Q0.91 6.72 1.07 6.56L1.07 6.56L1.07 6.56Q1.23 6.40 1.51 6.30L1.51 6.30L1.51 6.30Q1.99 6.13 2.62 6.06L2.62 6.06L2.62 6.06Q3.25 5.98 3.96 5.98L3.96 5.98L3.96 5.98Q5.89 5.98 6.87 6.79L6.87 6.79L6.87 6.79Q7.85 7.60 7.85 8.99L7.85 8.99L7.85 8.99Q7.85 9.86 7.41 10.47L7.41 10.47L7.41 10.47Q6.96 11.09 6.34 11.42L6.34 11.42L6.34 11.42Q6.85 12.11 7.34 12.71L7.34 12.71L7.34 12.71Q7.83 13.31 8.11 13.80L8.11 13.80L8.11 13.80Q7.97 14.29 7.59 14.55L7.59 14.55L7.59 14.55Q7.22 14.81 6.76 14.81L6.76 14.81L6.76 14.81Q6.45 14.81 6.23 14.74L6.23 14.74L6.23 14.74Q6.01 14.67 5.84 14.55L5.84 14.55L5.84 14.55Q5.67 14.42 5.53 14.24L5.53 14.24L5.53 14.24Q5.39 14.06 5.26 13.85L5.26 13.85L4.09 11.96ZM3.33 10.09L4.23 10.09L4.23 10.09Q4.76 10.09 5.07 9.82L5.07 9.82L5.07 9.82Q5.38 9.55 5.38 9.02L5.38 9.02L5.38 9.02Q5.38 8.48 5.03 8.21L5.03 8.21L5.03 8.21Q4.69 7.94 3.95 7.94L3.95 7.94L3.95 7.94Q3.74 7.94 3.61 7.95L3.61 7.95L3.61 7.95Q3.49 7.97 3.33 7.99L3.33 7.99L3.33 10.09ZM16.30 11.30L16.30 11.30L16.30 11.30Q16.30 12.17 16.03 12.85L16.03 12.85L16.03 12.85Q15.76 13.52 15.28 13.99L15.28 13.99L15.28 13.99Q14.80 14.45 14.13 14.69L14.13 14.69L14.13 14.69Q13.45 14.92 12.63 14.92L12.63 14.92L12.63 14.92Q11.80 14.92 11.13 14.67L11.13 14.67L11.13 14.67Q10.46 14.42 9.97 13.95L9.97 13.95L9.97 13.95Q9.49 13.48 9.23 12.81L9.23 12.81L9.23 12.81Q8.96 12.14 8.96 11.30L8.96 11.30L8.96 11.30Q8.96 10.47 9.23 9.80L9.23 9.80L9.23 9.80Q9.49 9.13 9.97 8.66L9.97 8.66L9.97 8.66Q10.46 8.19 11.13 7.94L11.13 7.94L11.13 7.94Q11.80 7.69 12.63 7.69L12.63 7.69L12.63 7.69Q13.45 7.69 14.13 7.95L14.13 7.95L14.13 7.95Q14.80 8.20 15.28 8.67L15.28 8.67L15.28 8.67Q15.76 9.14 16.03 9.81L16.03 9.81L16.03 9.81Q16.30 10.49 16.30 11.30ZM11.40 11.30L11.40 11.30L11.40 11.30Q11.40 12.15 11.72 12.61L11.72 12.61L11.72 12.61Q12.05 13.06 12.64 13.06L12.64 13.06L12.64 13.06Q13.23 13.06 13.54 12.60L13.54 12.60L13.54 12.60Q13.86 12.14 13.86 11.30L13.86 11.30L13.86 11.30Q13.86 10.46 13.54 10.00L13.54 10.00L13.54 10.00Q13.22 9.55 12.63 9.55L12.63 9.55L12.63 9.55Q12.04 9.55 11.72 10.00L11.72 10.00L11.72 10.00Q11.40 10.46 11.40 11.30ZM17.49 13.05L17.49 5.59L17.49 5.59Q17.63 5.54 17.93 5.50L17.93 5.50L17.93 5.50Q18.24 5.45 18.56 5.45L18.56 5.45L18.56 5.45Q18.87 5.45 19.12 5.49L19.12 5.49L19.12 5.49Q19.36 5.53 19.53 5.66L19.53 5.66L19.53 5.66Q19.70 5.78 19.78 6.00L19.78 6.00L19.78 6.00Q19.87 6.22 19.87 6.57L19.87 6.57L19.87 7.94L19.87 7.94Q20.22 7.80 20.53 7.74L20.53 7.74L20.53 7.74Q20.85 7.69 21.22 7.69L21.22 7.69L21.22 7.69Q21.90 7.69 22.50 7.92L22.50 7.92L22.50 7.92Q23.10 8.16 23.56 8.62L23.56 8.62L23.56 8.62Q24.02 9.07 24.29 9.74L24.29 9.74L24.29 9.74Q24.56 10.42 24.56 11.30L24.56 11.30L24.56 11.30Q24.56 12.21 24.28 12.89L24.28 12.89L24.28 12.89Q24.01 13.57 23.52 14.01L23.52 14.01L23.52 14.01Q23.03 14.46 22.32 14.69L22.32 14.69L22.32 14.69Q21.62 14.92 20.76 14.92L20.76 14.92L20.76 14.92Q19.84 14.92 19.19 14.71L19.19 14.71L19.19 14.71Q18.55 14.49 18.10 14.17L18.10 14.17L18.10 14.17Q17.49 13.73 17.49 13.05L17.49 13.05ZM20.76 13.05L20.76 13.05L20.76 13.05Q21.41 13.05 21.76 12.61L21.76 12.61L21.76 12.61Q22.12 12.17 22.12 11.30L22.12 11.30L22.12 11.30Q22.12 10.42 21.76 9.98L21.76 9.98L21.76 9.98Q21.39 9.55 20.78 9.55L20.78 9.55L20.78 9.55Q20.50 9.55 20.29 9.60L20.29 9.60L20.29 9.60Q20.09 9.66 19.85 9.77L19.85 9.77L19.85 12.82L19.85 12.82Q20.01 12.92 20.22 12.99L20.22 12.99L20.22 12.99Q20.44 13.05 20.76 13.05ZM34.57 12.61L34.57 12.61L34.57 12.61Q34.38 12.77 34.10 12.86L34.10 12.86L34.10 12.86Q33.81 12.95 33.43 12.95L33.43 12.95L33.43 12.95Q32.93 12.95 32.60 12.82L32.60 12.82L32.60 12.82Q32.27 12.70 32.17 12.39L32.17 12.39L32.17 12.39Q31.78 11.16 31.53 10.40L31.53 10.40L31.53 10.40Q31.28 9.63 31.14 9.06L31.14 9.06L31.07 9.06L31.07 9.06Q31.02 9.88 31.00 10.56L31.00 10.56L31.00 10.56Q30.98 11.24 30.98 11.89L30.98 11.89L30.98 11.89Q30.97 12.53 30.95 13.19L30.95 13.19L30.95 13.19Q30.93 13.85 30.88 14.64L30.88 14.64L30.88 14.64Q30.70 14.71 30.41 14.76L30.41 14.76L30.41 14.76Q30.11 14.81 29.82 14.81L29.82 14.81L29.82 14.81Q29.20 14.81 28.86 14.62L28.86 14.62L28.86 14.62Q28.52 14.42 28.52 13.90L28.52 13.90L28.92 6.76L28.92 6.76Q29.04 6.58 29.41 6.37L29.41 6.37L29.41 6.37Q29.79 6.16 30.48 6.16L30.48 6.16L30.48 6.16Q31.22 6.16 31.64 6.39L31.64 6.39L31.64 6.39Q32.06 6.62 32.26 7.14L32.26 7.14L32.26 7.14Q32.38 7.48 32.53 7.91L32.53 7.91L32.53 7.91Q32.68 8.34 32.82 8.81L32.82 8.81L32.82 8.81Q32.97 9.27 33.11 9.72L33.11 9.72L33.11 9.72Q33.25 10.18 33.36 10.54L33.36 10.54L33.43 10.54L33.43 10.54Q33.77 9.37 34.10 8.27L34.10 8.27L34.10 8.27Q34.44 7.17 34.72 6.43L34.72 6.43L34.72 6.43Q34.93 6.31 35.26 6.24L35.26 6.24L35.26 6.24Q35.59 6.16 35.99 6.16L35.99 6.16L35.99 6.16Q36.68 6.16 37.11 6.36L37.11 6.36L37.11 6.36Q37.55 6.57 37.62 6.94L37.62 6.94L37.62 6.94Q37.67 7.22 37.74 7.81L37.74 7.81L37.74 7.81Q37.80 8.39 37.87 9.11L37.87 9.11L37.87 9.11Q37.94 9.84 38.01 10.65L38.01 10.65L38.01 10.65Q38.08 11.47 38.14 12.22L38.14 12.22L38.14 12.22Q38.21 12.96 38.25 13.59L38.25 13.59L38.25 13.59Q38.29 14.21 38.30 14.55L38.30 14.55L38.30 14.55Q38.07 14.69 37.81 14.75L37.81 14.75L37.81 14.75Q37.55 14.81 37.14 14.81L37.14 14.81L37.14 14.81Q36.61 14.81 36.25 14.63L36.25 14.63L36.25 14.63Q35.88 14.45 35.85 13.92L35.85 13.92L35.85 13.92Q35.77 12.39 35.75 11.17L35.75 11.17L35.75 11.17Q35.73 9.95 35.69 9.13L35.69 9.13L35.62 9.13L35.62 9.13Q35.48 9.67 35.21 10.50L35.21 10.50L35.21 10.50Q34.94 11.33 34.57 12.61ZM43.27 14.92L43.27 14.92L43.27 14.92Q42.45 14.92 41.74 14.69L41.74 14.69L41.74 14.69Q41.03 14.46 40.51 14.00L40.51 14.00L40.51 14.00Q39.98 13.54 39.68 12.84L39.68 12.84L39.68 12.84Q39.38 12.14 39.38 11.20L39.38 11.20L39.38 11.20Q39.38 10.28 39.68 9.61L39.68 9.61L39.68 9.61Q39.98 8.95 40.47 8.52L40.47 8.52L40.47 8.52Q40.96 8.09 41.59 7.89L41.59 7.89L41.59 7.89Q42.22 7.69 42.88 7.69L42.88 7.69L42.88 7.69Q43.62 7.69 44.23 7.91L44.23 7.91L44.23 7.91Q44.84 8.13 45.28 8.53L45.28 8.53L45.28 8.53Q45.72 8.92 45.97 9.46L45.97 9.46L45.97 9.46Q46.21 10.01 46.21 10.65L46.21 10.65L46.21 10.65Q46.21 11.13 45.95 11.38L45.95 11.38L45.95 11.38Q45.68 11.63 45.21 11.70L45.21 11.70L41.75 12.22L41.75 12.22Q41.90 12.68 42.38 12.92L42.38 12.92L42.38 12.92Q42.85 13.15 43.47 13.15L43.47 13.15L43.47 13.15Q44.04 13.15 44.55 13.00L44.55 13.00L44.55 13.00Q45.07 12.85 45.39 12.66L45.39 12.66L45.39 12.66Q45.61 12.80 45.77 13.05L45.77 13.05L45.77 13.05Q45.92 13.30 45.92 13.58L45.92 13.58L45.92 13.58Q45.92 14.21 45.33 14.52L45.33 14.52L45.33 14.52Q44.88 14.76 44.32 14.84L44.32 14.84L44.32 14.84Q43.76 14.92 43.27 14.92ZM42.88 9.42L42.88 9.42L42.88 9.42Q42.55 9.42 42.30 9.53L42.30 9.53L42.30 9.53Q42.06 9.65 41.90 9.82L41.90 9.82L41.90 9.82Q41.75 10.00 41.67 10.21L41.67 10.21L41.67 10.21Q41.59 10.43 41.58 10.65L41.58 10.65L43.97 10.26L43.97 10.26Q43.93 9.98 43.67 9.70L43.67 9.70L43.67 9.70Q43.40 9.42 42.88 9.42ZM49.74 9.91L49.74 14.69L49.74 14.69Q49.60 14.73 49.30 14.77L49.30 14.77L49.30 14.77Q49 14.81 48.68 14.81L48.68 14.81L48.68 14.81Q48.37 14.81 48.13 14.77L48.13 14.77L48.13 14.77Q47.88 14.73 47.71 14.60L47.71 14.60L47.71 14.60Q47.54 14.48 47.45 14.26L47.45 14.26L47.45 14.26Q47.36 14.04 47.36 13.69L47.36 13.69L47.36 9.49L47.36 9.49Q47.36 9.17 47.48 8.94L47.48 8.94L47.48 8.94Q47.60 8.71 47.82 8.53L47.82 8.53L47.82 8.53Q48.05 8.34 48.38 8.20L48.38 8.20L48.38 8.20Q48.71 8.05 49.08 7.94L49.08 7.94L49.08 7.94Q49.46 7.83 49.87 7.76L49.87 7.76L49.87 7.76Q50.27 7.70 50.68 7.70L50.68 7.70L50.68 7.70Q51.35 7.70 51.74 7.96L51.74 7.96L51.74 7.96Q52.14 8.22 52.14 8.81L52.14 8.81L52.14 8.81Q52.14 9.00 52.08 9.19L52.08 9.19L52.08 9.19Q52.02 9.38 51.94 9.53L51.94 9.53L51.94 9.53Q51.65 9.53 51.34 9.56L51.34 9.56L51.34 9.56Q51.03 9.59 50.74 9.65L50.74 9.65L50.74 9.65Q50.44 9.70 50.18 9.77L50.18 9.77L50.18 9.77Q49.92 9.83 49.74 9.91L49.74 9.91ZM56.95 9.56L56.95 9.56L56.95 9.56Q56.60 9.56 56.29 9.67L56.29 9.67L56.29 9.67Q55.97 9.79 55.74 10.00L55.74 10.00L55.74 10.00Q55.51 10.22 55.37 10.54L55.37 10.54L55.37 10.54Q55.23 10.86 55.23 11.30L55.23 11.30L55.23 11.30Q55.23 12.17 55.73 12.60L55.73 12.60L55.73 12.60Q56.22 13.03 56.94 13.03L56.94 13.03L56.94 13.03Q57.36 13.03 57.67 12.94L57.67 12.94L57.67 12.94Q57.97 12.84 58.21 12.73L58.21 12.73L58.21 12.73Q58.49 12.92 58.63 13.15L58.63 13.15L58.63 13.15Q58.77 13.38 58.77 13.71L58.77 13.71L58.77 13.71Q58.77 14.28 58.23 14.60L58.23 14.60L58.23 14.60Q57.68 14.91 56.71 14.91L56.71 14.91L56.71 14.91Q55.83 14.91 55.12 14.65L55.12 14.65L55.12 14.65Q54.40 14.39 53.89 13.92L53.89 13.92L53.89 13.92Q53.38 13.45 53.10 12.80L53.10 12.80L53.10 12.80Q52.82 12.14 52.82 11.34L52.82 11.34L52.82 11.34Q52.82 10.42 53.12 9.72L53.12 9.72L53.12 9.72Q53.42 9.03 53.94 8.58L53.94 8.58L53.94 8.58Q54.46 8.13 55.14 7.91L55.14 7.91L55.14 7.91Q55.82 7.69 56.57 7.69L56.57 7.69L56.57 7.69Q57.58 7.69 58.13 8.05L58.13 8.05L58.13 8.05Q58.67 8.41 58.67 8.99L58.67 8.99L58.67 8.99Q58.67 9.25 58.55 9.49L58.55 9.49L58.55 9.49Q58.42 9.72 58.25 9.88L58.25 9.88L58.25 9.88Q58.02 9.77 57.68 9.67L57.68 9.67L57.68 9.67Q57.34 9.56 56.95 9.56ZM59.91 6.01L59.91 6.01L59.91 6.01Q59.91 5.47 60.26 5.11L60.26 5.11L60.26 5.11Q60.62 4.75 61.21 4.75L61.21 4.75L61.21 4.75Q61.80 4.75 62.15 5.11L62.15 5.11L62.15 5.11Q62.51 5.47 62.51 6.01L62.51 6.01L62.51 6.01Q62.51 6.54 62.15 6.90L62.15 6.90L62.15 6.90Q61.80 7.27 61.21 7.27L61.21 7.27L61.21 7.27Q60.62 7.27 60.26 6.90L60.26 6.90L60.26 6.90Q59.91 6.54 59.91 6.01ZM62.40 8.99L62.40 14.69L62.40 14.69Q62.24 14.71 61.94 14.76L61.94 14.76L61.94 14.76Q61.64 14.81 61.33 14.81L61.33 14.81L61.33 14.81Q61.03 14.81 60.78 14.77L60.78 14.77L60.78 14.77Q60.54 14.73 60.37 14.60L60.37 14.60L60.37 14.60Q60.20 14.48 60.11 14.26L60.11 14.26L60.11 14.26Q60.02 14.04 60.02 13.69L60.02 13.69L60.02 7.99L60.02 7.99Q60.17 7.97 60.47 7.92L60.47 7.92L60.47 7.92Q60.77 7.87 61.08 7.87L61.08 7.87L61.08 7.87Q61.39 7.87 61.63 7.91L61.63 7.91L61.63 7.91Q61.88 7.95 62.05 8.08L62.05 8.08L62.05 8.08Q62.22 8.20 62.31 8.42L62.31 8.42L62.31 8.42Q62.40 8.64 62.40 8.99L62.40 8.99ZM67.51 14.92L67.51 14.92L67.51 14.92Q66.68 14.92 65.97 14.69L65.97 14.69L65.97 14.69Q65.27 14.46 64.74 14.00L64.74 14.00L64.74 14.00Q64.22 13.54 63.92 12.84L63.92 12.84L63.92 12.84Q63.62 12.14 63.62 11.20L63.62 11.20L63.62 11.20Q63.62 10.28 63.92 9.61L63.92 9.61L63.92 9.61Q64.22 8.95 64.71 8.52L64.71 8.52L64.71 8.52Q65.20 8.09 65.83 7.89L65.83 7.89L65.83 7.89Q66.46 7.69 67.12 7.69L67.12 7.69L67.12 7.69Q67.86 7.69 68.47 7.91L68.47 7.91L68.47 7.91Q69.08 8.13 69.52 8.53L69.52 8.53L69.52 8.53Q69.96 8.92 70.20 9.46L70.20 9.46L70.20 9.46Q70.45 10.01 70.45 10.65L70.45 10.65L70.45 10.65Q70.45 11.13 70.18 11.38L70.18 11.38L70.18 11.38Q69.92 11.63 69.44 11.70L69.44 11.70L65.98 12.22L65.98 12.22Q66.14 12.68 66.61 12.92L66.61 12.92L66.61 12.92Q67.09 13.15 67.70 13.15L67.70 13.15L67.70 13.15Q68.28 13.15 68.79 13.00L68.79 13.00L68.79 13.00Q69.30 12.85 69.62 12.66L69.62 12.66L69.62 12.66Q69.85 12.80 70 13.05L70 13.05L70 13.05Q70.15 13.30 70.15 13.58L70.15 13.58L70.15 13.58Q70.15 14.21 69.57 14.52L69.57 14.52L69.57 14.52Q69.12 14.76 68.56 14.84L68.56 14.84L68.56 14.84Q68.00 14.92 67.51 14.92ZM67.12 9.42L67.12 9.42L67.12 9.42Q66.78 9.42 66.53 9.53L66.53 9.53L66.53 9.53Q66.29 9.65 66.14 9.82L66.14 9.82L66.14 9.82Q65.98 10.00 65.91 10.21L65.91 10.21L65.91 10.21Q65.83 10.43 65.81 10.65L65.81 10.65L68.21 10.26L68.21 10.26Q68.17 9.98 67.90 9.70L67.90 9.70L67.90 9.70Q67.63 9.42 67.12 9.42ZM73.98 9.91L73.98 14.69L73.98 14.69Q73.84 14.73 73.53 14.77L73.53 14.77L73.53 14.77Q73.23 14.81 72.91 14.81L72.91 14.81L72.91 14.81Q72.60 14.81 72.36 14.77L72.36 14.77L72.36 14.77Q72.11 14.73 71.95 14.60L71.95 14.60L71.95 14.60Q71.78 14.48 71.69 14.26L71.69 14.26L71.69 14.26Q71.60 14.04 71.60 13.69L71.60 13.69L71.60 9.49L71.60 9.49Q71.60 9.17 71.71 8.94L71.71 8.94L71.71 8.94Q71.83 8.71 72.06 8.53L72.06 8.53L72.06 8.53Q72.28 8.34 72.61 8.20L72.61 8.20L72.61 8.20Q72.94 8.05 73.32 7.94L73.32 7.94L73.32 7.94Q73.70 7.83 74.10 7.76L74.10 7.76L74.10 7.76Q74.51 7.70 74.91 7.70L74.91 7.70L74.91 7.70Q75.59 7.70 75.98 7.96L75.98 7.96L75.98 7.96Q76.37 8.22 76.37 8.81L76.37 8.81L76.37 8.81Q76.37 9.00 76.31 9.19L76.31 9.19L76.31 9.19Q76.26 9.38 76.17 9.53L76.17 9.53L76.17 9.53Q75.88 9.53 75.57 9.56L75.57 9.56L75.57 9.56Q75.26 9.59 74.97 9.65L74.97 9.65L74.97 9.65Q74.68 9.70 74.42 9.77L74.42 9.77L74.42 9.77Q74.16 9.83 73.98 9.91L73.98 9.91Z"></path></g><!----><g data-v-d3f97b9e="" id="43772d6c-19bc-43cb-befd-29d0e4dffaf3" transform="matrix(1.875,0,0,1.875,0.9062514305114746,0)" stroke="none" fill="black"><path d="M39 4H9c-.5 0-1 .4-1 1v23c0 .6.4 1 1 1h30c.6 0 1-.4 1-1V5c0-.6-.4-1-1-1zm-1 23H10V6h28v21z"></path><path d="M48 41c0-.1 0-.3-.1-.4L44 31.8V1c0-.6-.4-1-1-1H5c-.5 0-1 .4-1 1v30.8L.1 40.6 0 41v3.7C0 46.6 1.5 48 3.3 48h41.5c1.8 0 3.3-1.5 3.3-3.3L48 41zM6 2h36v29H6V2zm-.3 31h36.7l3.1 7h-43l3.2-7zM46 44.8c0 .7-.6 1.3-1.3 1.3H3.3C2.6 46 2 45.4 2 44.8V42h44v2.8z"></path><path d="M25.9 36.2h-3.8c-.6 0-1 .4-1 1s.4 1 1 1h3.8c.6 0 1-.4 1-1s-.4-1-1-1zM18.6 18.2l-5.1-2.4v-.1l5.1-2.4v-1.6l-6.9 3.2v1.8l6.9 3.2zM27.9 9.7h-1.5l-6.3 13.6h1.5zM36.3 14.9l-6.9-3.2v1.6l5.1 2.4v.1l-5.1 2.4v1.7l6.9-3.2z"></path></g><!----></svg>