<svg data-v-29081953="" xmlns="http://www.w3.org/2000/svg" viewBox="0 0 300 300"><!----><defs data-v-29081953=""><linearGradient data-v-29081953="" gradientTransform="rotate(25)" id="ca84b88c-926b-4534-92ee-443fefb40058" x1="0%" y1="0%" x2="100%" y2="0%"><stop data-v-29081953="" offset="0%" stop-color="#20484F" stop-opacity="1"></stop><stop data-v-29081953="" offset="100%" stop-color="#4E9BAB" stop-opacity="1"></stop></linearGradient></defs><rect data-v-29081953="" fill="url(#ca84b88c-926b-4534-92ee-443fefb40058)" x="0" y="0" width="300px" height="300px" class="logo-background-square"></rect><!----><defs data-v-29081953=""><!----></defs><g data-v-29081953="" id="0a776a80-f321-4b39-a56d-ae17a6b60d4a" fill="#ffffff" stroke="none" transform="matrix(4.573804718899629,0,0,4.573804718899629,40,40.22868674640891)"><path d="M39 4H9c-.5 0-1 .4-1 1v23c0 .6.4 1 1 1h30c.6 0 1-.4 1-1V5c0-.6-.4-1-1-1zm-1 23H10V6h28v21z"></path><path d="M48 41c0-.1 0-.3-.1-.4L44 31.8V1c0-.6-.4-1-1-1H5c-.5 0-1 .4-1 1v30.8L.1 40.6 0 41v3.7C0 46.6 1.5 48 3.3 48h41.5c1.8 0 3.3-1.5 3.3-3.3L48 41zM6 2h36v29H6V2zm-.3 31h36.7l3.1 7h-43l3.2-7zM46 44.8c0 .7-.6 1.3-1.3 1.3H3.3C2.6 46 2 45.4 2 44.8V42h44v2.8z"></path><path d="M25.9 36.2h-3.8c-.6 0-1 .4-1 1s.4 1 1 1h3.8c.6 0 1-.4 1-1s-.4-1-1-1zM18.6 18.2l-5.1-2.4v-.1l5.1-2.4v-1.6l-6.9 3.2v1.8l6.9 3.2zM27.9 9.7h-1.5l-6.3 13.6h1.5zM36.3 14.9l-6.9-3.2v1.6l5.1 2.4v.1l-5.1 2.4v1.7l6.9-3.2z"></path></g><!----></svg>