<svg data-v-29081953="" xmlns="http://www.w3.org/2000/svg" viewBox="0 0 300 300"><!----><defs data-v-29081953=""><!----></defs><rect data-v-29081953="" fill="transparent" x="0" y="0" width="300px" height="300px" class="logo-background-square"></rect><defs data-v-29081953=""><!----></defs><g data-v-29081953="" id="0e4e9fcd-2424-4d25-8225-da2741c7e04b" fill="#000000" transform="matrix(2.4226432022128086,0,0,2.4226432022128086,67.37562645229521,136.2363583651888)"><path d="M9.38 10.37L6.41 7.03C8.27 6.65 8.89 5.29 8.89 3.95C8.89 2.25 7.67 0.71 5.36 0.70C3.81 0.70 2.25 0.69 0.70 0.69L0.70 10.50L2.55 10.50L2.55 7.22L4.33 7.22L7.18 10.50L9.38 10.50ZM5.36 2.42C6.52 2.42 7.04 3.21 7.04 3.99C7.04 4.77 6.54 5.56 5.36 5.56L2.55 5.56L2.55 2.42ZM13.26 3.46C11.06 3.46 9.69 5.08 9.69 7.06C9.69 9.04 11.03 10.65 13.27 10.65C15.51 10.65 16.87 9.04 16.87 7.06C16.87 5.08 15.46 3.46 13.26 3.46ZM13.27 5.01C14.42 5.01 15.15 6.02 15.15 7.06C15.15 8.11 14.52 9.09 13.27 9.09C12.03 9.09 11.40 8.11 11.40 7.06C11.40 6.02 12.04 5.01 13.27 5.01ZM21.87 5.03C22.96 5.03 23.83 5.80 23.83 7.04C23.83 8.25 22.96 9.07 21.87 9.07C20.79 9.07 19.87 8.29 19.87 7.04C19.87 5.84 20.79 5.03 21.87 5.03ZM18.05 0.71L18.05 10.50L19.64 10.50L19.75 9.55C20.29 10.37 21.14 10.65 21.98 10.65C24.01 10.65 25.54 9.31 25.54 7.04C25.54 4.66 24.04 3.43 22.02 3.43C21.29 3.43 20.16 3.82 19.75 4.54L19.75 0.71ZM38.29 10.51L40.14 10.51L40.14 0.71L38.02 0.71L34.96 4.93L31.89 0.71L29.76 0.71L29.76 10.51L31.61 10.51L31.61 3.39L34.73 7.66L35.10 7.66L38.29 3.40ZM48.59 7.66C48.86 4.82 47.42 3.39 45.11 3.39C42.87 3.39 41.44 4.90 41.44 7C41.44 9.21 42.85 10.68 45.23 10.68C46.28 10.68 47.47 10.32 48.20 9.56L47.11 8.48C46.72 8.89 45.89 9.13 45.26 9.13C44.06 9.13 43.32 8.51 43.20 7.66ZM43.23 6.24C43.48 5.35 44.24 4.90 45.16 4.90C46.14 4.90 46.84 5.35 46.96 6.24ZM49.91 3.60L49.91 10.50L51.62 10.50L51.62 6.86C51.62 5.59 52.44 5.11 53.34 5.11C53.90 5.11 54.22 5.26 54.57 5.56L55.34 4.07C54.96 3.70 54.28 3.42 53.56 3.42C52.86 3.42 52.15 3.54 51.62 4.40L51.49 3.60ZM60.76 8.50C60.34 8.92 59.79 9.07 59.25 9.07C58.18 9.07 57.29 8.37 57.29 7.06C57.29 5.85 58.13 5.01 59.28 5.01C59.75 5.01 60.26 5.19 60.66 5.56L61.74 4.42C60.98 3.68 60.23 3.40 59.25 3.40C57.25 3.40 55.58 4.61 55.58 7.06C55.58 9.51 57.25 10.71 59.25 10.71C60.27 10.71 61.11 10.40 61.91 9.62ZM64.37 3.57L64.37 10.50L62.66 10.50L62.66 3.57ZM62.51 1.65C62.51 2.98 64.53 2.98 64.53 1.65C64.53 0.32 62.51 0.32 62.51 1.65ZM72.76 7.66C73.02 4.82 71.58 3.39 69.27 3.39C67.03 3.39 65.60 4.90 65.60 7C65.60 9.21 67.02 10.68 69.40 10.68C70.45 10.68 71.64 10.32 72.37 9.56L71.27 8.48C70.88 8.89 70.06 9.13 69.43 9.13C68.22 9.13 67.48 8.51 67.37 7.66ZM67.40 6.24C67.65 5.35 68.40 4.90 69.33 4.90C70.31 4.90 71.01 5.35 71.12 6.24ZM74.07 3.60L74.07 10.50L75.78 10.50L75.78 6.86C75.78 5.59 76.61 5.11 77.50 5.11C78.06 5.11 78.39 5.26 78.74 5.56L79.51 4.07C79.13 3.70 78.44 3.42 77.73 3.42C77.03 3.42 76.31 3.54 75.78 4.40L75.66 3.60Z"></path></g><defs data-v-29081953=""><linearGradient data-v-29081953="" gradientTransform="rotate(25)" id="c636fa5c-4ea7-4994-931c-2a4da78faead" x1="0%" y1="0%" x2="100%" y2="0%"><stop data-v-29081953="" offset="0%" stop-color="#2F8632" stop-opacity="1"></stop><stop data-v-29081953="" offset="100%" stop-color="#BEFF7F" stop-opacity="1"></stop></linearGradient></defs><g data-v-29081953="" id="6355e270-06b8-45b2-bb32-7e18845fa787" stroke="none" fill="url(#c636fa5c-4ea7-4994-931c-2a4da78faead)" transform="matrix(0.23252883698416002,0,0,0.23252883698416002,24.780150975408443,126.7679028950818)"><path d="M134.5 81.5c-.2-4.4-.9-8.8-2.2-13.1-.7-2.2-1.6-4.3-2.9-6.4-1.3-2-2.9-4.1-5.3-5.5-1.2-.7-2.5-1.2-3.9-1.5-.7-.1-1.5-.2-2.1-.2l-1.5-.1c-2-.1-4.1-.3-6.2-.5-1.6-.1-3.2-.3-4.9-.4 2.2-.6 4.4-1.5 6.3-3 2.6-1.9 4.6-4.9 5.5-8 .4-1.5.3-2.9-.3-3.9s-1.4-1.5-2.3-1.5c-.9 0-1.8.5-2.4 1.1-.7.6-1.2 1.4-1.4 2.3-.6 1.8-1.6 3.4-3.2 4.6-1.5 1.2-3.5 1.9-5.5 2.1-4.1.5-8.4-1.2-10.4-4.3-.8-1.3-1.4-2.8-1.6-4.4-.2-1.7-.1-3.4.3-5 .9-3.1 3.3-5.6 6.6-6.7 3.3-1.2 7.2-1.1 10.5.6 1.6.8 3.1 2 4.1 3.5 1.1 1.5 1.8 3.4 2.1 5.4.1.5.5.8.9.8s.8-.3.8-.9c.1-2.2-.3-4.6-1.2-6.7-1-2.2-2.6-4.1-4.6-5.5-2-1.4-4.3-2.3-6.7-2.7-2.4-.4-4.9-.4-7.3.2-2.4.6-4.8 1.7-6.8 3.5-2 1.7-3.5 4-4.4 6.5-.8 2.5-1.1 5.1-.8 7.6.2 2.6 1.1 5.2 2.6 7.5 1.8 2.8 4.5 4.9 7.5 6 .4.1.7.2 1.1.4-3.5.1-7.1.4-10.8 1.2-2.8.7-5.6 1.6-8.2 3.3-2.6 1.7-4.9 4.1-6.4 6.9-.7 1.4-1.2 3-1.6 4.4-.3 1.4-.6 2.7-.8 4.1-.4 2.7-.7 5.4-.8 8-.3 5.3-.1 10.7.7 16.1.4 2.7 1 5.4 1.9 8.1.9 2.7 2.2 5.4 4.2 7.9C75 115.7 78 117 80 117h.4c.3 2.5.7 5.1 1.1 7.6.1.6 1.6.6 1.7 0 1.7-9.6 2.5-19.3 2.5-29V78c0-1.4-1.5-2.5-3.4-2.5s-3.4 1.1-3.4 2.5v17.7c0 5 .2 10 .7 15-.5-.5-.9-1-1.5-1.7-1.3-1.5-2.3-3.5-3-5.7-.7-2.2-1.3-4.5-1.6-6.9-.7-4.8-.9-9.8-.6-14.8.1-2.5.4-4.9.7-7.4.2-1.2.4-2.4.7-3.5.3-1.1.6-2 1-2.9.9-1.8 2.2-3.2 4-4.3 1.8-1.1 3.9-1.9 6.1-2.4 3.7-.9 7.7-1.1 11.8-1.1 4.1 0 8.2.3 12.4.6 2.1.1 4.2.3 6.5.3h1.7c.5 0 .7.1 1.1.1.7.1 1.3.3 2 .7 2.6 1.4 4.7 4.9 6 8.5 1.4 3.7 2.2 7.6 2.6 11.7.4 4 .5 8.1.2 12.2-.4 4-1.1 8.1-2.6 11.8-.7 1.9-1.7 3.6-3 5.1-.9 1.1-2 2-3.2 2.6.6-6 1-11.9 1-17.9V78c0-1.4-1.5-2.5-3.4-2.5s-3.4 1.1-3.4 2.5v17.7c0 9.7.8 19.3 2.5 29 .1.6 1.6.6 1.7 0 .5-3 .9-6 1.3-9 1.9-.6 3.7-1.7 5.1-3.1 1.6-1.6 2.9-3.5 3.9-5.5 2-4 3.1-8.2 3.9-12.5 1-4.3 1.2-8.7 1-13.1zM132 137c-.6-1.2-1.3-2.6-2.5-3.6-1.2-1.1-2.6-1.8-4-2.2-1.4-.4-2.8-.5-4-.6-2.5-.1-4.8 0-7.1 0-9.3-.2-18.6-.4-27.9-.5-2.3 0-4.7-.1-7.2 0-1.3.1-2.6.2-4.1.5-1.4.3-3 .9-4.5 2-1.4 1.1-2.4 2.6-3.1 4.1-.3.7-.6 1.4-.7 2.1l-.3 1-.2 1c-.4 2.8-.4 4.9-.6 7.3-.3 5.8-.6 11.5 0 17.7.1.8.3 1.6.4 2.4.2.8.4 1.7.8 2.5.6 1.7 1.8 3.5 3.4 4.8 1.6 1.3 3.6 2.1 5.3 2.5 1.7.4 3.4.5 4.9.5 3.1 0 5.8-.1 8.6-.1h25.6c5.4 0 9.8-1.5 9.8-3.4s-4.4-3.4-9.8-3.4H89.1c-2.8 0-5.9.1-8.5.1-2.6 0-4.9-.4-6-1.4-1.2-.9-1.9-2.9-2.2-5.4-.6-5.2-.3-10.9 0-16.5.2-2.3.2-4.8.5-6.6l.1-.7.2-.7c.1-.5.3-.8.4-1.2.3-.7.6-1.2 1.1-1.5.4-.3 1.1-.6 1.9-.8.8-.2 1.8-.3 2.9-.4 2.1-.1 4.4-.1 6.8-.1 9.4-.1 18.8-.3 28.1-.5 2.4-.1 4.8-.3 6.9-.3 1 0 2.1 0 2.9.2.8.2 1.5.5 2.1 1 .6.4 1.1 1.2 1.5 2 .4.8.8 1.9 1 2.8.5 2 .7 4.3.9 6.6.4 4.5.5 9.1.2 13.7-.2 2.3-.5 4.5-1 6.7-.5 2.1-1.4 4.3-3 5.3-.8.5-1.3.8-1.4 1.2 0 .2.2.4.5.5.4.1 1 .1 1.6-.2 1.3-.6 2.2-1.7 2.8-2.8.7-1.1 1.2-2.2 1.6-3.4.8-2.3 1.3-4.7 1.7-7 .7-4.7.9-9.5.9-14.2-.1-2.4-.2-4.7-.6-7.3-.1-1.3-.5-2.4-1-3.7z"></path><path d="M88.4 154.3c-.2 0-.3 0-.3-.2 0-.1-.1-.1-.1-.2v-.1s.1-.1.1-.2l.4-.5c.9-1.3 1.8-2.8 2.5-4.3.1-.2-.9-1.4-1.1-1.3-1.7.5-3.2 1.1-4.7 1.8l-.5.3c-.1.1-.1.1-.3.2l-.5.3-1.9 1.3c-1.3.9-2.6 1.9-3.8 2.9.8.8 1.7 1.6 2.6 2.3l6.8 5.9c.4.4 1.7-.5 2.9-1.9s1.9-2.8 1.4-3.2l-3.5-3.1zM112.9 146.1c-.4-.4-1.7.5-2.9 1.9s-1.9 2.8-1.4 3.2l3.6 3.1h.1c.1 0 .2 0 .2.2 0 .1.1.1.1.2v.1s-.1.1-.1.2l-.4.5c-.9 1.3-1.8 2.8-2.5 4.3-.1.2.9 1.4 1.1 1.3 1.7-.5 3.2-1.1 4.7-1.8l.5-.3c.1-.1.1-.1.3-.2l.5-.3 1.9-1.3c1.3-.9 2.6-1.9 3.8-2.9-.8-.8-1.7-1.6-2.6-2.3l-6.9-5.9zM102.2 148c-1.8-.5-3.3-.7-3.4-.3l-1.4 4.5c-.8 2.5-.7 5.1.1 8.1.1.2 1.5.6 1.6.5 2.3-2 3.9-4.2 4.6-6.6l1.4-4.5c.3-.5-1.1-1.2-2.9-1.7z"></path></g><!----></svg>