<svg data-v-d3f97b9e="" xmlns="http://www.w3.org/2000/svg" viewBox="0 0 600 90"><!----><!----><!----><g data-v-d3f97b9e="" id="79e0c49f-ca1a-42da-8ce7-05568ce8d611" fill="black" transform="matrix(4.946413803291662,0,0,4.946413803291662,167.47657160826992,11.982688343698094)"><path d="M6.51 8.28C7.75 7.91 8.63 6.76 8.63 5.32C8.63 3.54 7.30 2.10 5.50 2.10L1.03 2.10L1.03 12.60L3.34 12.60L3.34 8.54L4.27 8.54L6.86 12.60L9.45 12.60ZM5.15 6.63L3.34 6.63L3.34 4.15L5.15 4.15C5.88 4.15 6.42 4.67 6.42 5.39C6.42 6.13 5.88 6.63 5.15 6.63ZM13.81 12.74C16.15 12.74 17.69 11.20 17.69 9.10C17.69 7.00 16.15 5.46 13.81 5.46C11.46 5.46 9.91 7.00 9.91 9.10C9.91 11.20 11.46 12.74 13.81 12.74ZM13.81 10.76C12.85 10.75 12.15 10.05 12.15 9.10C12.15 8.16 12.85 7.46 13.81 7.44C14.75 7.46 15.47 8.16 15.47 9.10C15.47 10.05 14.75 10.75 13.81 10.76ZM23.52 5.46C22.72 5.46 22.05 5.74 21.53 6.21L21.53 0.61L19.29 0.61L19.29 12.60L21.53 12.62L21.53 11.99C22.05 12.46 22.72 12.74 23.52 12.74C25.45 12.74 26.97 11.13 26.97 9.10C26.97 7.07 25.45 5.46 23.52 5.46ZM23.08 10.76C22.16 10.76 21.42 10.03 21.42 9.10C21.42 8.17 22.16 7.44 23.08 7.44C24.01 7.44 24.75 8.17 24.75 9.10C24.75 10.03 24.01 10.76 23.08 10.76ZM41.90 2.10L38.55 9.36L35.25 2.10L32.74 2.10L32.74 12.60L35.05 12.60L35.05 6.34L37.89 12.60L39.22 12.60L42.07 6.35L42.07 12.60L44.38 12.60L44.38 2.10ZM53.57 9.08C53.57 6.90 52.06 5.44 49.80 5.44C47.55 5.44 45.95 6.91 45.95 9.10C45.95 11.29 47.53 12.74 49.88 12.74C51.82 12.74 53.11 11.71 53.46 10.19L51.31 10.19C51.12 10.75 50.61 11.08 49.84 11.08C48.83 11.08 48.30 10.47 48.21 9.47L53.57 9.47ZM49.84 7.16C50.59 7.16 51.03 7.51 51.26 8.12L48.35 8.12C48.58 7.53 49.05 7.16 49.84 7.16ZM59.33 5.46C58.50 5.46 57.82 5.88 57.37 6.56L57.37 5.60L55.13 5.60L55.13 12.60L57.37 12.60L57.37 9.26C57.37 8.10 58.15 7.44 59.26 7.44C59.52 7.44 59.75 7.47 59.90 7.51L59.90 5.53C59.75 5.48 59.54 5.46 59.33 5.46ZM64.31 12.74C66.41 12.74 67.85 11.52 68.14 9.77L65.83 9.77C65.61 10.36 65.03 10.75 64.31 10.76C63.35 10.75 62.65 10.05 62.65 9.10C62.65 8.16 63.35 7.46 64.31 7.44C65.03 7.46 65.61 7.84 65.83 8.44L68.14 8.44C67.85 6.69 66.41 5.46 64.31 5.46C61.97 5.46 60.41 7.00 60.41 9.10C60.41 11.20 61.97 12.74 64.31 12.74ZM70.73 4.43C71.40 4.43 71.96 3.87 71.96 3.20C71.96 2.52 71.40 1.98 70.73 1.98C70.07 1.98 69.51 2.52 69.51 3.20C69.51 3.87 70.07 4.43 70.73 4.43ZM69.61 12.60L71.84 12.60L71.84 5.60L69.61 5.60ZM81.08 9.08C81.08 6.90 79.57 5.44 77.31 5.44C75.06 5.44 73.47 6.91 73.47 9.10C73.47 11.29 75.04 12.74 77.39 12.74C79.33 12.74 80.62 11.71 80.97 10.19L78.82 10.19C78.63 10.75 78.12 11.08 77.35 11.08C76.33 11.08 75.81 10.47 75.72 9.47L81.08 9.47ZM77.35 7.16C78.10 7.16 78.54 7.51 78.77 8.12L75.86 8.12C76.09 7.53 76.56 7.16 77.35 7.16ZM86.84 5.46C86.01 5.46 85.33 5.88 84.88 6.56L84.88 5.60L82.64 5.60L82.64 12.60L84.88 12.60L84.88 9.26C84.88 8.10 85.66 7.44 86.77 7.44C87.03 7.44 87.26 7.47 87.41 7.51L87.41 5.53C87.26 5.48 87.05 5.46 86.84 5.46Z"></path></g><!----><g data-v-d3f97b9e="" id="12b04423-b0f5-43ef-ab47-84d0463d900c" transform="matrix(4.767707010539777,0,0,4.767707010539777,0.7180736195694664,-30.72369084482824)" stroke="none" fill="black"><circle cx="7.957" cy="12.389" r="3.926"></circle><path d="M7.771 25.439l-3.793-8.222s-3.979.053-3.979 3.713v4.509h7.772zM8.143 25.439l3.793-8.222s3.979.053 3.979 3.713v4.509H8.143zM7.957 17.216H5.225l2.732 6.048 2.732-6.048zM13.097 11.842l6.249-3.219v.929l-5.266 2.64v.027l5.266 2.64v.929l-6.249-3.219v-.727zM20.226 16.327l3.757-9.765h.916l-3.771 9.765h-.902zM32 12.581l-6.249 3.206v-.929l5.307-2.64v-.027l-5.307-2.64v-.928L32 11.828v.753z"></path></g><!----></svg>