<svg data-v-29081953="" xmlns="http://www.w3.org/2000/svg" viewBox="0 0 300 300"><!----><defs data-v-29081953=""><!----></defs><rect data-v-29081953="" fill="#E9F1EF" x="0" y="0" width="300px" height="300px" class="logo-background-square"></rect><defs data-v-29081953=""><!----></defs><g data-v-29081953="" id="53706a85-c62b-4ec6-8c18-840097033853" fill="#163530" transform="matrix(3.5059329444564473,0,0,3.5059329444564473,17.019956913624036,181.4029116738938)"><path d="M4.33 6.43L2.73 6.43L2.73 10.50L0.85 10.50L0.85-0.42L4.27-0.42L4.27-0.42Q7.92-0.42 7.92 2.86L7.92 2.86L7.92 3.14L7.92 3.14Q7.92 5.43 6.15 6.13L6.15 6.13L7.92 10.50L5.89 10.50L4.33 6.43ZM2.73 1.22L2.73 4.79L4.34 4.79L4.34 4.79Q6.02 4.79 6.02 3.08L6.02 3.08L6.02 2.93L6.02 2.93Q6.02 1.22 4.34 1.22L4.34 1.22L2.73 1.22ZM14.94 9.68L14.94 9.68L14.94 9.68Q14.10 10.68 12.42 10.68L12.42 10.68L12.42 10.68Q10.74 10.68 9.90 9.68L9.90 9.68L9.90 9.68Q9.06 8.68 9.06 7.01L9.06 7.01L9.06 6.57L9.06 6.57Q9.06 4.89 9.90 3.89L9.90 3.89L9.90 3.89Q10.74 2.90 12.42 2.90L12.42 2.90L12.42 2.90Q14.10 2.90 14.94 3.89L14.94 3.89L14.94 3.89Q15.78 4.89 15.78 6.57L15.78 6.57L15.78 7.01L15.78 7.01Q15.78 8.68 14.94 9.68ZM10.88 7.01L10.88 7.01Q10.88 9.09 12.42 9.09L12.42 9.09L12.42 9.09Q13.96 9.09 13.96 7.01L13.96 7.01L13.96 6.57L13.96 6.57Q13.96 4.48 12.42 4.48L12.42 4.48L12.42 4.48Q10.88 4.48 10.88 6.57L10.88 6.57L10.88 7.01ZM17.09-0.70L18.91-0.70L18.91 3.77L18.91 3.77Q19.64 2.90 20.89 2.90L20.89 2.90L20.89 2.90Q23.66 2.90 23.66 6.57L23.66 6.57L23.66 7.01L23.66 7.01Q23.66 8.71 22.99 9.70L22.99 9.70L22.99 9.70Q22.33 10.68 20.89 10.68L20.89 10.68L20.89 10.68Q19.46 10.68 18.75 9.58L18.75 9.58L18.59 10.50L16.98 10.50L17.09 8.40L17.09-0.70ZM18.91 5.33L18.91 5.33L18.91 8.25L18.91 8.25Q19.45 9.09 20.37 9.09L20.37 9.09L20.37 9.09Q21.84 9.09 21.84 7.01L21.84 7.01L21.84 6.57L21.84 6.57Q21.84 4.48 20.37 4.48L20.37 4.48L20.37 4.48Q19.46 4.48 18.91 5.33ZM36.13 5.10L36.19 2.84L33.85 10.50L31.98 10.50L29.65 2.84L29.71 5.10L29.71 10.50L27.83 10.50L27.83-0.42L30.59-0.42L32.91 7.25L35.25-0.42L38.01-0.42L38.01 10.50L36.13 10.50L36.13 5.10ZM46.09 6.61L46.09 7.46L41.19 7.46L41.19 7.46Q41.29 9.27 42.85 9.27L42.85 9.27L42.85 9.27Q43.55 9.27 43.96 8.93L43.96 8.93L43.96 8.93Q44.37 8.58 44.37 8.12L44.37 8.12L46.09 8.12L46.09 8.18L46.09 8.18Q46.09 9.23 45.23 9.95L45.23 9.95L45.23 9.95Q44.37 10.68 42.84 10.68L42.84 10.68L42.84 10.68Q41.12 10.68 40.24 9.66L40.24 9.66L40.24 9.66Q39.37 8.64 39.37 6.97L39.37 6.97L39.37 6.61L39.37 6.61Q39.37 4.94 40.24 3.92L40.24 3.92L40.24 3.92Q41.10 2.90 42.77 2.90L42.77 2.90L42.77 2.90Q44.41 2.90 45.25 3.92L45.25 3.92L45.25 3.92Q46.09 4.94 46.09 6.61L46.09 6.61ZM42.73 4.31L42.73 4.31L42.73 4.31Q41.30 4.31 41.19 6.12L41.19 6.12L44.25 6.12L44.25 6.12Q44.17 4.31 42.73 4.31ZM51.06 2.90L51.06 2.90L51.06 2.90Q51.10 2.90 51.18 2.91L51.18 2.91L51.18 2.91Q51.25 2.91 51.27 2.91L51.27 2.91L51.27 4.68L50.96 4.68L50.96 4.68Q49.76 4.68 49.24 5.46L49.24 5.46L49.24 10.50L47.42 10.50L47.42 5.18L47.29 3.08L48.90 3.08L49.06 3.98L49.06 3.98Q49.80 2.90 51.06 2.90ZM54.08 6.57L54.08 7.01L54.08 7.01Q54.08 9.09 55.58 9.09L55.58 9.09L55.58 9.09Q56.24 9.09 56.57 8.73L56.57 8.73L56.57 8.73Q56.90 8.37 56.90 7.80L56.90 7.80L58.62 7.80L58.62 8.09L58.62 8.09Q58.62 9.23 57.83 9.95L57.83 9.95L57.83 9.95Q57.04 10.68 55.54 10.68L55.54 10.68L55.54 10.68Q53.90 10.68 53.08 9.68L53.08 9.68L53.08 9.68Q52.26 8.68 52.26 7.01L52.26 7.01L52.26 6.57L52.26 6.57Q52.26 4.89 53.08 3.89L53.08 3.89L53.08 3.89Q53.90 2.90 55.54 2.90L55.54 2.90L55.54 2.90Q57.05 2.90 57.83 3.65L57.83 3.65L57.83 3.65Q58.62 4.41 58.62 5.60L58.62 5.60L58.62 5.91L56.90 5.91L56.90 5.91Q56.90 5.24 56.57 4.86L56.57 4.86L56.57 4.86Q56.24 4.48 55.58 4.48L55.58 4.48L55.58 4.48Q54.08 4.48 54.08 6.57L54.08 6.57ZM61.77 10.50L59.95 10.50L59.95 3.08L61.77 3.08L61.77 10.50ZM59.86-0.18L61.85-0.18L61.85 1.79L59.86 1.79L59.86-0.18ZM69.83 6.61L69.83 7.46L64.93 7.46L64.93 7.46Q65.03 9.27 66.60 9.27L66.60 9.27L66.60 9.27Q67.30 9.27 67.70 8.93L67.70 8.93L67.70 8.93Q68.11 8.58 68.11 8.12L68.11 8.12L69.83 8.12L69.83 8.18L69.83 8.18Q69.83 9.23 68.97 9.95L68.97 9.95L68.97 9.95Q68.11 10.68 66.58 10.68L66.58 10.68L66.58 10.68Q64.86 10.68 63.99 9.66L63.99 9.66L63.99 9.66Q63.11 8.64 63.11 6.97L63.11 6.97L63.11 6.61L63.11 6.61Q63.11 4.94 63.98 3.92L63.98 3.92L63.98 3.92Q64.85 2.90 66.51 2.90L66.51 2.90L66.51 2.90Q68.15 2.90 68.99 3.92L68.99 3.92L68.99 3.92Q69.83 4.94 69.83 6.61L69.83 6.61ZM66.47 4.31L66.47 4.31L66.47 4.31Q65.04 4.31 64.93 6.12L64.93 6.12L68.00 6.12L68.00 6.12Q67.91 4.31 66.47 4.31ZM74.80 2.90L74.80 2.90L74.80 2.90Q74.84 2.90 74.92 2.91L74.92 2.91L74.92 2.91Q75.00 2.91 75.01 2.91L75.01 2.91L75.01 4.68L74.70 4.68L74.70 4.68Q73.50 4.68 72.98 5.46L72.98 5.46L72.98 10.50L71.16 10.50L71.16 5.18L71.04 3.08L72.65 3.08L72.80 3.98L72.80 3.98Q73.54 2.90 74.80 2.90Z"></path></g><defs data-v-29081953=""><linearGradient data-v-29081953="" gradientTransform="rotate(25)" id="a26133ea-29e1-48f2-beec-4d40f4634213" x1="0%" y1="0%" x2="100%" y2="0%"><stop data-v-29081953="" offset="0%" stop-color="#021802" stop-opacity="1"></stop><stop data-v-29081953="" offset="100%" stop-color="#60DBCC" stop-opacity="1"></stop></linearGradient></defs><g data-v-29081953="" id="e644c0bf-c7b1-4914-a23d-e60223ab0f72" stroke="none" fill="url(#a26133ea-29e1-48f2-beec-4d40f4634213)" transform="matrix(0.5076705070944156,0,0,0.5076705070944156,99.2270465054265,70.32957313821508)"><path d="M134.5 81.5c-.2-4.4-.9-8.8-2.2-13.1-.7-2.2-1.6-4.3-2.9-6.4-1.3-2-2.9-4.1-5.3-5.5-1.2-.7-2.5-1.2-3.9-1.5-.7-.1-1.5-.2-2.1-.2l-1.5-.1c-2-.1-4.1-.3-6.2-.5-1.6-.1-3.2-.3-4.9-.4 2.2-.6 4.4-1.5 6.3-3 2.6-1.9 4.6-4.9 5.5-8 .4-1.5.3-2.9-.3-3.9s-1.4-1.5-2.3-1.5c-.9 0-1.8.5-2.4 1.1-.7.6-1.2 1.4-1.4 2.3-.6 1.8-1.6 3.4-3.2 4.6-1.5 1.2-3.5 1.9-5.5 2.1-4.1.5-8.4-1.2-10.4-4.3-.8-1.3-1.4-2.8-1.6-4.4-.2-1.7-.1-3.4.3-5 .9-3.1 3.3-5.6 6.6-6.7 3.3-1.2 7.2-1.1 10.5.6 1.6.8 3.1 2 4.1 3.5 1.1 1.5 1.8 3.4 2.1 5.4.1.5.5.8.9.8s.8-.3.8-.9c.1-2.2-.3-4.6-1.2-6.7-1-2.2-2.6-4.1-4.6-5.5-2-1.4-4.3-2.3-6.7-2.7-2.4-.4-4.9-.4-7.3.2-2.4.6-4.8 1.7-6.8 3.5-2 1.7-3.5 4-4.4 6.5-.8 2.5-1.1 5.1-.8 7.6.2 2.6 1.1 5.2 2.6 7.5 1.8 2.8 4.5 4.9 7.5 6 .4.1.7.2 1.1.4-3.5.1-7.1.4-10.8 1.2-2.8.7-5.6 1.6-8.2 3.3-2.6 1.7-4.9 4.1-6.4 6.9-.7 1.4-1.2 3-1.6 4.4-.3 1.4-.6 2.7-.8 4.1-.4 2.7-.7 5.4-.8 8-.3 5.3-.1 10.7.7 16.1.4 2.7 1 5.4 1.9 8.1.9 2.7 2.2 5.4 4.2 7.9C75 115.7 78 117 80 117h.4c.3 2.5.7 5.1 1.1 7.6.1.6 1.6.6 1.7 0 1.7-9.6 2.5-19.3 2.5-29V78c0-1.4-1.5-2.5-3.4-2.5s-3.4 1.1-3.4 2.5v17.7c0 5 .2 10 .7 15-.5-.5-.9-1-1.5-1.7-1.3-1.5-2.3-3.5-3-5.7-.7-2.2-1.3-4.5-1.6-6.9-.7-4.8-.9-9.8-.6-14.8.1-2.5.4-4.9.7-7.4.2-1.2.4-2.4.7-3.5.3-1.1.6-2 1-2.9.9-1.8 2.2-3.2 4-4.3 1.8-1.1 3.9-1.9 6.1-2.4 3.7-.9 7.7-1.1 11.8-1.1 4.1 0 8.2.3 12.4.6 2.1.1 4.2.3 6.5.3h1.7c.5 0 .7.1 1.1.1.7.1 1.3.3 2 .7 2.6 1.4 4.7 4.9 6 8.5 1.4 3.7 2.2 7.6 2.6 11.7.4 4 .5 8.1.2 12.2-.4 4-1.1 8.1-2.6 11.8-.7 1.9-1.7 3.6-3 5.1-.9 1.1-2 2-3.2 2.6.6-6 1-11.9 1-17.9V78c0-1.4-1.5-2.5-3.4-2.5s-3.4 1.1-3.4 2.5v17.7c0 9.7.8 19.3 2.5 29 .1.6 1.6.6 1.7 0 .5-3 .9-6 1.3-9 1.9-.6 3.7-1.7 5.1-3.1 1.6-1.6 2.9-3.5 3.9-5.5 2-4 3.1-8.2 3.9-12.5 1-4.3 1.2-8.7 1-13.1zM132 137c-.6-1.2-1.3-2.6-2.5-3.6-1.2-1.1-2.6-1.8-4-2.2-1.4-.4-2.8-.5-4-.6-2.5-.1-4.8 0-7.1 0-9.3-.2-18.6-.4-27.9-.5-2.3 0-4.7-.1-7.2 0-1.3.1-2.6.2-4.1.5-1.4.3-3 .9-4.5 2-1.4 1.1-2.4 2.6-3.1 4.1-.3.7-.6 1.4-.7 2.1l-.3 1-.2 1c-.4 2.8-.4 4.9-.6 7.3-.3 5.8-.6 11.5 0 17.7.1.8.3 1.6.4 2.4.2.8.4 1.7.8 2.5.6 1.7 1.8 3.5 3.4 4.8 1.6 1.3 3.6 2.1 5.3 2.5 1.7.4 3.4.5 4.9.5 3.1 0 5.8-.1 8.6-.1h25.6c5.4 0 9.8-1.5 9.8-3.4s-4.4-3.4-9.8-3.4H89.1c-2.8 0-5.9.1-8.5.1-2.6 0-4.9-.4-6-1.4-1.2-.9-1.9-2.9-2.2-5.4-.6-5.2-.3-10.9 0-16.5.2-2.3.2-4.8.5-6.6l.1-.7.2-.7c.1-.5.3-.8.4-1.2.3-.7.6-1.2 1.1-1.5.4-.3 1.1-.6 1.9-.8.8-.2 1.8-.3 2.9-.4 2.1-.1 4.4-.1 6.8-.1 9.4-.1 18.8-.3 28.1-.5 2.4-.1 4.8-.3 6.9-.3 1 0 2.1 0 2.9.2.8.2 1.5.5 2.1 1 .6.4 1.1 1.2 1.5 2 .4.8.8 1.9 1 2.8.5 2 .7 4.3.9 6.6.4 4.5.5 9.1.2 13.7-.2 2.3-.5 4.5-1 6.7-.5 2.1-1.4 4.3-3 5.3-.8.5-1.3.8-1.4 1.2 0 .2.2.4.5.5.4.1 1 .1 1.6-.2 1.3-.6 2.2-1.7 2.8-2.8.7-1.1 1.2-2.2 1.6-3.4.8-2.3 1.3-4.7 1.7-7 .7-4.7.9-9.5.9-14.2-.1-2.4-.2-4.7-.6-7.3-.1-1.3-.5-2.4-1-3.7z"></path><path d="M88.4 154.3c-.2 0-.3 0-.3-.2 0-.1-.1-.1-.1-.2v-.1s.1-.1.1-.2l.4-.5c.9-1.3 1.8-2.8 2.5-4.3.1-.2-.9-1.4-1.1-1.3-1.7.5-3.2 1.1-4.7 1.8l-.5.3c-.1.1-.1.1-.3.2l-.5.3-1.9 1.3c-1.3.9-2.6 1.9-3.8 2.9.8.8 1.7 1.6 2.6 2.3l6.8 5.9c.4.4 1.7-.5 2.9-1.9s1.9-2.8 1.4-3.2l-3.5-3.1zM112.9 146.1c-.4-.4-1.7.5-2.9 1.9s-1.9 2.8-1.4 3.2l3.6 3.1h.1c.1 0 .2 0 .2.2 0 .1.1.1.1.2v.1s-.1.1-.1.2l-.4.5c-.9 1.3-1.8 2.8-2.5 4.3-.1.2.9 1.4 1.1 1.3 1.7-.5 3.2-1.1 4.7-1.8l.5-.3c.1-.1.1-.1.3-.2l.5-.3 1.9-1.3c1.3-.9 2.6-1.9 3.8-2.9-.8-.8-1.7-1.6-2.6-2.3l-6.9-5.9zM102.2 148c-1.8-.5-3.3-.7-3.4-.3l-1.4 4.5c-.8 2.5-.7 5.1.1 8.1.1.2 1.5.6 1.6.5 2.3-2 3.9-4.2 4.6-6.6l1.4-4.5c.3-.5-1.1-1.2-2.9-1.7z"></path></g><!----></svg>