<svg data-v-d3f97b9e="" xmlns="http://www.w3.org/2000/svg" viewBox="0 0 552 90"><!----><!----><!----><g data-v-d3f97b9e="" id="8f2a1268-b50e-4542-88c2-00a928c67451" fill="white" transform="matrix(5.357142948374458,0,0,5.357142948374458,168.8213975984526,9.374998490725247)"><path d="M0.70 12.02L0.70 12.02L0.70 1.27L0.70 1.27Q0.70 1.05 0.92 1.05L0.92 1.05L4.44 1.05L4.44 1.05Q5.43 1.05 5.94 1.57L5.94 1.57L5.94 1.57Q6.45 2.08 6.45 3.07L6.45 3.07L6.45 6.48L6.45 6.48Q6.45 7.89 5.43 8.33L5.43 8.33L6.40 12.00L6.40 12.00Q6.46 12.25 6.20 12.25L6.20 12.25L4.74 12.25L4.74 12.25Q4.55 12.25 4.50 12.05L4.50 12.05L3.57 8.50L2.60 8.50L2.60 12.02L2.60 12.02Q2.60 12.13 2.54 12.19L2.54 12.19L2.54 12.19Q2.48 12.25 2.38 12.25L2.38 12.25L0.92 12.25L0.92 12.25Q0.82 12.25 0.76 12.19L0.76 12.19L0.76 12.19Q0.70 12.13 0.70 12.02ZM2.60 2.90L2.60 6.65L3.99 6.65L3.99 6.65Q4.55 6.65 4.55 6.09L4.55 6.09L4.55 3.46L4.55 3.46Q4.55 2.90 3.99 2.90L3.99 2.90L2.60 2.90ZM7.85 10.23L7.85 10.23L7.85 4.46L7.85 4.46Q7.85 3.47 8.36 2.96L8.36 2.96L8.36 2.96Q8.87 2.45 9.86 2.45L9.86 2.45L11.44 2.45L11.44 2.45Q12.43 2.45 12.94 2.96L12.94 2.96L12.94 2.96Q13.45 3.47 13.45 4.46L13.45 4.46L13.45 10.23L13.45 10.23Q13.45 11.22 12.94 11.74L12.94 11.74L12.94 11.74Q12.43 12.25 11.44 12.25L11.44 12.25L9.86 12.25L9.86 12.25Q8.87 12.25 8.36 11.74L8.36 11.74L8.36 11.74Q7.85 11.22 7.85 10.23ZM9.67 4.82L9.67 9.88L9.67 9.88Q9.67 10.45 10.23 10.45L10.23 10.45L11.13 10.45L11.13 10.45Q11.69 10.45 11.69 9.88L11.69 9.88L11.69 4.82L11.69 4.82Q11.69 4.26 11.13 4.26L11.13 4.26L10.23 4.26L10.23 4.26Q9.67 4.26 9.67 4.82L9.67 4.82ZM14.85 12.02L14.85 12.02L14.85 2.67L14.85 2.67Q14.85 2.45 15.07 2.45L15.07 2.45L18.44 2.45L18.44 2.45Q19.43 2.45 19.95 2.96L19.95 2.96L19.95 2.96Q20.47 3.47 20.47 4.46L20.47 4.46L20.47 6.36L20.47 6.36Q20.47 6.74 20.22 7.01L20.22 7.01L20.22 7.01Q19.97 7.29 19.58 7.35L19.58 7.35L19.58 7.38L19.58 7.38Q19.97 7.44 20.22 7.71L20.22 7.71L20.22 7.71Q20.47 7.99 20.47 8.37L20.47 8.37L20.47 10.23L20.47 10.23Q20.47 11.22 19.95 11.74L19.95 11.74L19.95 11.74Q19.43 12.25 18.44 12.25L18.44 12.25L15.07 12.25L15.07 12.25Q14.97 12.25 14.91 12.19L14.91 12.19L14.91 12.19Q14.85 12.13 14.85 12.02ZM16.58 8.29L16.58 10.49L18.13 10.49L18.13 10.49Q18.69 10.49 18.69 9.93L18.69 9.93L18.69 8.85L18.69 8.85Q18.69 8.29 18.13 8.29L18.13 8.29L16.58 8.29ZM16.58 4.21L16.58 6.44L18.13 6.44L18.13 6.44Q18.40 6.44 18.55 6.30L18.55 6.30L18.55 6.30Q18.69 6.15 18.69 5.89L18.69 5.89L18.69 4.77L18.69 4.77Q18.69 4.21 18.13 4.21L18.13 4.21L16.58 4.21ZM25.36 11.97L25.36 11.97L25.36 1.33L25.36 1.33Q25.36 1.05 25.64 1.05L25.64 1.05L27.49 1.05L27.49 1.05Q27.74 1.05 27.80 1.30L27.80 1.30L29.35 8.27L30.91 1.30L30.91 1.30Q30.97 1.05 31.21 1.05L31.21 1.05L33.07 1.05L33.07 1.05Q33.35 1.05 33.35 1.33L33.35 1.33L33.35 11.97L33.35 11.97Q33.35 12.25 33.07 12.25L33.07 12.25L31.76 12.25L31.76 12.25Q31.48 12.25 31.48 11.97L31.48 11.97L31.48 5.67L31.38 5.67L30.00 12.00L30.00 12.00Q29.93 12.25 29.69 12.25L29.69 12.25L29.00 12.25L29.00 12.25Q28.76 12.25 28.70 12.00L28.70 12.00L27.31 5.67L27.21 5.67L27.21 11.97L27.21 11.97Q27.21 12.25 26.93 12.25L26.93 12.25L25.64 12.25L25.64 12.25Q25.36 12.25 25.36 11.97ZM34.74 12.02L34.74 12.02L34.74 2.67L34.74 2.67Q34.74 2.57 34.80 2.51L34.80 2.51L34.80 2.51Q34.86 2.45 34.95 2.45L34.95 2.45L40.11 2.45L40.11 2.45Q40.33 2.45 40.33 2.67L40.33 2.67L40.33 4.07L40.33 4.07Q40.33 4.31 40.11 4.31L40.11 4.31L36.65 4.31L36.65 6.47L39.28 6.47L39.28 6.47Q39.50 6.47 39.50 6.71L39.50 6.71L39.50 8.09L39.50 8.09Q39.50 8.33 39.28 8.33L39.28 8.33L36.65 8.33L36.65 10.40L40.11 10.40L40.11 10.40Q40.24 10.40 40.28 10.45L40.28 10.45L40.28 10.45Q40.33 10.50 40.33 10.62L40.33 10.62L40.33 12.02L40.33 12.02Q40.33 12.25 40.11 12.25L40.11 12.25L34.95 12.25L34.95 12.25Q34.86 12.25 34.80 12.19L34.80 12.19L34.80 12.19Q34.74 12.13 34.74 12.02ZM41.58 12.02L41.58 12.02L41.58 2.67L41.58 2.67Q41.58 2.57 41.64 2.51L41.64 2.51L41.64 2.51Q41.71 2.45 41.81 2.45L41.81 2.45L45.17 2.45L45.17 2.45Q46.16 2.45 46.68 2.96L46.68 2.96L46.68 2.96Q47.19 3.47 47.19 4.46L47.19 4.46L47.19 7.28L47.19 7.28Q47.19 8.50 46.40 8.99L46.40 8.99L47.13 12.00L47.13 12.00Q47.19 12.25 46.94 12.25L46.94 12.25L45.56 12.25L45.56 12.25Q45.36 12.25 45.32 12.05L45.32 12.05L44.65 9.30L43.41 9.30L43.41 12.02L43.41 12.02Q43.41 12.13 43.35 12.19L43.35 12.19L43.35 12.19Q43.29 12.25 43.18 12.25L43.18 12.25L41.81 12.25L41.81 12.25Q41.71 12.25 41.64 12.19L41.64 12.19L41.64 12.19Q41.58 12.13 41.58 12.02ZM43.41 4.26L43.41 7.49L44.80 7.49L44.80 7.49Q45.36 7.49 45.36 6.93L45.36 6.93L45.36 4.82L45.36 4.82Q45.36 4.26 44.80 4.26L44.80 4.26L43.41 4.26ZM48.58 10.23L48.58 10.23L48.58 4.46L48.58 4.46Q48.58 3.47 49.10 2.96L49.10 2.96L49.10 2.96Q49.62 2.45 50.61 2.45L50.61 2.45L52.19 2.45L52.19 2.45Q53.16 2.45 53.68 2.96L53.68 2.96L53.68 2.96Q54.20 3.48 54.20 4.46L54.20 4.46L54.20 5.97L54.20 5.97Q54.20 6.08 54.14 6.14L54.14 6.14L54.14 6.14Q54.08 6.20 53.98 6.20L53.98 6.20L52.66 6.20L52.66 6.20Q52.44 6.20 52.44 5.97L52.44 5.97L52.44 4.83L52.44 4.83Q52.44 4.27 51.88 4.27L51.88 4.27L50.98 4.27L50.98 4.27Q50.42 4.27 50.42 4.83L50.42 4.83L50.42 9.91L50.42 9.91Q50.42 10.47 50.98 10.47L50.98 10.47L51.88 10.47L51.88 10.47Q52.44 10.47 52.44 9.91L52.44 9.91L52.44 8.72L52.44 8.72Q52.44 8.50 52.66 8.50L52.66 8.50L53.98 8.50L53.98 8.50Q54.08 8.50 54.14 8.56L54.14 8.56L54.14 8.56Q54.20 8.62 54.20 8.72L54.20 8.72L54.20 10.23L54.20 10.23Q54.20 11.22 53.68 11.73L53.68 11.73L53.68 11.73Q53.16 12.25 52.19 12.25L52.19 12.25L50.61 12.25L50.61 12.25Q49.62 12.25 49.10 11.74L49.10 11.74L49.10 11.74Q48.58 11.22 48.58 10.23ZM55.60 2.67L55.60 12.02L55.60 12.02Q55.60 12.25 55.82 12.25L55.82 12.25L57.28 12.25L57.28 12.25Q57.38 12.25 57.44 12.19L57.44 12.19L57.44 12.19Q57.50 12.13 57.50 12.02L57.50 12.02L57.50 2.67L57.50 2.67Q57.50 2.57 57.44 2.51L57.44 2.51L57.44 2.51Q57.38 2.45 57.28 2.45L57.28 2.45L55.82 2.45L55.82 2.45Q55.60 2.45 55.60 2.67L55.60 2.67ZM58.90 12.02L58.90 12.02L58.90 2.67L58.90 2.67Q58.90 2.57 58.96 2.51L58.96 2.51L58.96 2.51Q59.01 2.45 59.11 2.45L59.11 2.45L64.26 2.45L64.26 2.45Q64.49 2.45 64.49 2.67L64.49 2.67L64.49 4.07L64.49 4.07Q64.49 4.31 64.26 4.31L64.26 4.31L60.81 4.31L60.81 6.47L63.44 6.47L63.44 6.47Q63.66 6.47 63.66 6.71L63.66 6.71L63.66 8.09L63.66 8.09Q63.66 8.33 63.44 8.33L63.44 8.33L60.81 8.33L60.81 10.40L64.26 10.40L64.26 10.40Q64.39 10.40 64.44 10.45L64.44 10.45L64.44 10.45Q64.49 10.50 64.49 10.62L64.49 10.62L64.49 12.02L64.49 12.02Q64.49 12.25 64.26 12.25L64.26 12.25L59.11 12.25L59.11 12.25Q59.01 12.25 58.96 12.19L58.96 12.19L58.96 12.19Q58.90 12.13 58.90 12.02ZM65.74 12.02L65.74 12.02L65.74 2.67L65.74 2.67Q65.74 2.57 65.80 2.51L65.80 2.51L65.80 2.51Q65.86 2.45 65.97 2.45L65.97 2.45L69.33 2.45L69.33 2.45Q70.32 2.45 70.83 2.96L70.83 2.96L70.83 2.96Q71.35 3.47 71.35 4.46L71.35 4.46L71.35 7.28L71.35 7.28Q71.35 8.50 70.56 8.99L70.56 8.99L71.29 12.00L71.29 12.00Q71.35 12.25 71.09 12.25L71.09 12.25L69.72 12.25L69.72 12.25Q69.52 12.25 69.48 12.05L69.48 12.05L68.81 9.30L67.57 9.30L67.57 12.02L67.57 12.02Q67.57 12.13 67.50 12.19L67.50 12.19L67.50 12.19Q67.44 12.25 67.34 12.25L67.34 12.25L65.97 12.25L65.97 12.25Q65.86 12.25 65.80 12.19L65.80 12.19L65.80 12.19Q65.74 12.13 65.74 12.02ZM67.57 4.26L67.57 7.49L68.96 7.49L68.96 7.49Q69.52 7.49 69.52 6.93L69.52 6.93L69.52 4.82L69.52 4.82Q69.52 4.26 68.96 4.26L68.96 4.26L67.57 4.26Z"></path></g><!----><g data-v-d3f97b9e="" id="f0775493-047a-4b24-bd6b-9743eb39e34c" transform="matrix(4.767707010539777,0,0,4.767707010539777,0.7180736195694664,-30.72369084482824)" stroke="none" fill="white"><circle cx="7.957" cy="12.389" r="3.926"></circle><path d="M7.771 25.439l-3.793-8.222s-3.979.053-3.979 3.713v4.509h7.772zM8.143 25.439l3.793-8.222s3.979.053 3.979 3.713v4.509H8.143zM7.957 17.216H5.225l2.732 6.048 2.732-6.048zM13.097 11.842l6.249-3.219v.929l-5.266 2.64v.027l5.266 2.64v.929l-6.249-3.219v-.727zM20.226 16.327l3.757-9.765h.916l-3.771 9.765h-.902zM32 12.581l-6.249 3.206v-.929l5.307-2.64v-.027l-5.307-2.64v-.928L32 11.828v.753z"></path></g><!----></svg>