<svg data-v-d3f97b9e="" xmlns="http://www.w3.org/2000/svg" viewBox="0 0 585 110"><!----><!----><!----><g data-v-d3f97b9e="" id="c9c8c0e7-af1c-4b73-a386-41d6d8a27a39" fill="black" transform="matrix(5.830903811703725,0,0,5.830903811703725,123.38466862840343,22.333728887033026)"><path d="M1.06 10.50L2.72 10.50L3.44 6.64L4.61 6.64C6.01 6.64 6.55 7.39 6.99 8.81L7.56 10.50L9.42 10.50L8.61 8.16C8.32 7.28 7.78 6.36 6.82 6.12C8.48 5.87 9.55 4.94 9.86 3.40C10.29 1.18 8.65 0.42 6.58 0.42L3.00 0.42ZM4.35 1.90L6.09 1.90C7.42 1.90 8.40 2.24 8.15 3.54C7.92 4.66 7.01 5.21 5.49 5.21L3.74 5.21ZM10.42 6.86C9.94 9.37 11.16 10.71 13.15 10.71C15.13 10.71 16.88 9.37 17.36 6.86C17.86 4.35 16.62 3.01 14.63 3.01C12.64 3.01 10.91 4.35 10.42 6.86ZM11.97 6.86C12.31 5.10 13.33 4.31 14.39 4.31C15.44 4.31 16.16 5.10 15.81 6.86C15.48 8.62 14.46 9.42 13.40 9.42C12.35 9.42 11.63 8.62 11.97 6.86ZM19.82 0.42L17.89 10.50L19.31 10.50L19.47 9.56C19.77 10.26 20.34 10.71 21.27 10.71C23.18 10.71 24.68 9.23 25.13 6.86C25.58 4.49 24.64 3.01 22.72 3.01C21.95 3.01 21.25 3.33 20.71 3.95L21.38 0.42ZM19.98 6.86C20.31 5.17 21.27 4.31 22.30 4.31C23.32 4.31 23.91 5.17 23.58 6.86C23.24 8.57 22.33 9.42 21.32 9.42C20.40 9.42 19.66 8.57 19.98 6.86ZM31.58 10.50L33.04 2.88L34.34 10.50L35.77 10.50L39.97 2.88L38.53 10.50L40.17 10.50L42.10 0.42L39.93 0.42L35.46 8.44L34.12 0.42L31.86 0.42L29.93 10.50ZM48.61 8.37L47.19 8.06C46.80 8.93 46.02 9.42 45.23 9.42C44.23 9.42 43.47 8.76 43.68 7.28L46.05 7.28C47.63 7.28 48.99 6.80 49.03 5.17C49.06 4.00 48.06 3.01 46.37 3.01C44.41 3.01 42.69 4.35 42.20 6.86C41.72 9.37 42.91 10.71 44.88 10.71C46.52 10.71 47.84 9.93 48.61 8.37ZM46.10 4.31C46.82 4.31 47.49 4.61 47.47 5.19C47.46 5.88 46.98 6.13 46.21 6.13L43.93 6.13C44.35 4.89 45.29 4.31 46.10 4.31ZM50.95 10.50L51.65 6.82C51.91 5.40 52.71 4.47 53.91 4.47C54.35 4.47 54.59 4.59 54.84 4.77L55.45 3.39C55.16 3.12 54.80 3.01 54.24 3.01C53.28 3.01 52.61 3.50 51.97 4.48L52.21 3.22L50.78 3.22L49.39 10.50ZM56.80 6.86C57.13 5.10 58.10 4.31 59.12 4.31C59.96 4.31 60.59 4.69 60.45 5.73L61.96 5.73C62.29 3.84 60.98 3.01 59.36 3.01C57.40 3.01 55.73 4.35 55.24 6.86C54.77 9.37 55.92 10.71 57.88 10.71C59.44 10.71 60.79 9.88 61.50 8.22L60.05 7.92C59.61 8.97 58.93 9.42 58.14 9.42C57.11 9.42 56.46 8.62 56.80 6.86ZM65.58 2.00L65.87 0.42L64.32 0.42L64.02 2.00ZM63.94 10.50L65.32 3.22L63.77 3.22L62.38 10.50ZM72.21 8.37L70.80 8.06C70.41 8.93 69.62 9.42 68.84 9.42C67.83 9.42 67.07 8.76 67.28 7.28L69.65 7.28C71.23 7.28 72.59 6.80 72.63 5.17C72.66 4.00 71.67 3.01 69.97 3.01C68.01 3.01 66.29 4.35 65.80 6.86C65.32 9.37 66.51 10.71 68.49 10.71C70.13 10.71 71.44 9.93 72.21 8.37ZM69.71 4.31C70.42 4.31 71.09 4.61 71.08 5.19C71.06 5.88 70.59 6.13 69.82 6.13L67.54 6.13C67.96 4.89 68.89 4.31 69.71 4.31ZM74.55 10.50L75.25 6.82C75.52 5.40 76.31 4.47 77.52 4.47C77.95 4.47 78.19 4.59 78.44 4.77L79.06 3.39C78.76 3.12 78.40 3.01 77.84 3.01C76.89 3.01 76.22 3.50 75.57 4.48L75.81 3.22L74.38 3.22L73.00 10.50Z"></path></g><!----><g data-v-d3f97b9e="" id="ff40eebb-92d0-4fa3-9f58-b22d1c5cf06e" transform="matrix(1.1033555772569446,0,0,1.1033555772569446,-3.1419726159423647,-0.9048750541897306)" stroke="none" fill="black"><path d="M81.263 1.182h-56.99c-15.275 0-20.797 5.312-20.797 21.18v57.192c0 15.373 5.522 20.93 20.796 20.93h56.991c15.403 0 21.515-5.557 21.515-20.93V22.362c0-15.868-5.912-21.18-21.515-21.18zM61.226 29.796h6.995L45.688 71.87h-8.092M70.12 36.538l.009-6.695 22.37 17.635c-.032 2.082.032 4.482 0 6.564L70.13 71.676l.018-6.755L88.508 50.79zM17.746 50.789l18.361 14.132.018 6.755-22.37-17.634c-.032-2.082.032-4.482 0-6.564l22.37-17.635.01 6.695z"></path></g><!----></svg>