<svg data-v-29081953="" xmlns="http://www.w3.org/2000/svg" viewBox="0 0 300 300"><!----><defs data-v-29081953=""><!----></defs><rect data-v-29081953="" fill="transparent" x="0" y="0" width="300px" height="300px" class="logo-background-square"></rect><!----><defs data-v-29081953=""><linearGradient data-v-29081953="" gradientTransform="rotate(25)" id="38a70cec-79cb-464b-b754-e36abbc2ddf2" x1="0%" y1="0%" x2="100%" y2="0%"><stop data-v-29081953="" offset="0%" stop-color="#0A3732" stop-opacity="1"></stop><stop data-v-29081953="" offset="100%" stop-color="#55C388" stop-opacity="1"></stop></linearGradient></defs><g data-v-29081953="" id="5ef60722-da69-49ee-870d-f93d23638413" fill="url(#38a70cec-79cb-464b-b754-e36abbc2ddf2)" stroke="none" transform="matrix(2.215463894714327,0,0,2.215463894714327,32.29905209949329,37.38132343432307)"><path d="M81.263 1.182h-56.99c-15.275 0-20.797 5.312-20.797 21.18v57.192c0 15.373 5.522 20.93 20.796 20.93h56.991c15.403 0 21.515-5.557 21.515-20.93V22.362c0-15.868-5.912-21.18-21.515-21.18zM61.226 29.796h6.995L45.688 71.87h-8.092M70.12 36.538l.009-6.695 22.37 17.635c-.032 2.082.032 4.482 0 6.564L70.13 71.676l.018-6.755L88.508 50.79zM17.746 50.789l18.361 14.132.018 6.755-22.37-17.634c-.032-2.082.032-4.482 0-6.564l22.37-17.635.01 6.695z"></path></g><!----></svg>