<svg data-v-d3f97b9e="" xmlns="http://www.w3.org/2000/svg" viewBox="0 0 614 275"><!----><!----><!----><g data-v-d3f97b9e="" id="3990a5a6-f3d4-4623-bff2-897d28208a8b" fill="#000000" transform="matrix(5.70884859118442,0,0,5.70884859118442,132.7711152873782,90.6952860165603)"><path d="M8.34 6.37C8.34 4.10 6.54 3.43 4.94 3.43L1.61 3.43C1.44 3.43 1.39 3.49 1.39 3.65L1.39 13.01C1.39 13.20 1.44 13.23 1.61 13.23L2.27 13.23C2.44 13.23 2.49 13.19 2.49 13.01L2.49 9.39L5.00 9.39L7.57 13.01C7.67 13.15 7.78 13.23 7.95 13.23L8.61 13.23C8.78 13.23 8.89 13.15 8.78 12.96L6.15 9.27C7.45 8.92 8.34 8.04 8.34 6.37ZM2.49 8.44L2.49 4.38L4.87 4.38C6.31 4.38 7.27 4.97 7.27 6.37C7.27 7.64 6.54 8.44 4.87 8.44ZM10.02 9.67C10.02 11.72 11.66 13.38 13.71 13.38C15.75 13.38 17.39 11.72 17.39 9.67C17.39 7.63 15.75 5.95 13.71 5.95C11.66 5.95 10.02 7.63 10.02 9.67ZM13.71 12.45C12.25 12.45 11.07 11.21 11.07 9.67C11.07 8.13 12.25 6.90 13.71 6.90C15.18 6.90 16.35 8.13 16.35 9.67C16.35 11.21 15.18 12.45 13.71 12.45ZM20.43 3.12C20.43 2.95 20.37 2.90 20.22 2.90L19.59 2.90C19.43 2.90 19.38 2.95 19.38 3.12L19.38 13.01C19.38 13.17 19.43 13.23 19.59 13.23L19.92 13.23C20.05 13.23 20.09 13.17 20.16 13.01L20.27 11.70C20.61 12.24 21.36 13.38 23.02 13.38C24.98 13.38 26.25 11.69 26.25 9.66C26.25 7.62 24.98 5.95 23.02 5.95C21.36 5.95 20.61 7.20 20.43 7.59ZM22.82 12.45C21.35 12.45 20.43 11.06 20.43 9.67C20.43 8.27 21.35 6.90 22.82 6.90C24.28 6.90 25.21 8.22 25.21 9.66C25.21 11.21 24.28 12.45 22.82 12.45ZM41.55 5.71L42.36 13.01C42.38 13.17 42.42 13.23 42.57 13.23L43.26 13.23C43.43 13.23 43.48 13.16 43.47 13.01L42.29 3.37C42.28 3.28 42.27 3.25 42.17 3.25L42.08 3.25C42.03 3.25 41.99 3.26 41.92 3.37L37.44 11.84L32.96 3.37C32.89 3.26 32.84 3.25 32.79 3.25L32.70 3.25C32.61 3.25 32.59 3.28 32.58 3.37L31.40 13.01C31.37 13.16 31.44 13.23 31.60 13.23L32.28 13.23C32.45 13.23 32.48 13.17 32.51 13.01L33.33 5.73L37.11 13.19C37.21 13.33 37.27 13.41 37.38 13.41L37.49 13.41C37.60 13.41 37.67 13.33 37.74 13.19ZM51.42 11.77C51.31 11.65 51.25 11.68 51.10 11.76C50.43 12.25 49.59 12.46 48.90 12.46C47.49 12.46 46.30 11.34 46.20 10.04L52.04 10.04C52.22 10.04 52.25 9.98 52.25 9.81C52.25 7.71 50.97 5.95 48.79 5.95C46.75 5.95 45.12 7.63 45.12 9.67C45.12 11.72 46.75 13.38 48.86 13.38C49.90 13.38 51.03 13.05 51.69 12.40C51.79 12.31 51.79 12.22 51.69 12.10ZM46.23 9.31C46.27 8.05 47.33 6.83 48.78 6.83C50.20 6.83 51.11 8.05 51.17 9.31ZM57.97 6.99C58.14 6.99 58.18 6.94 58.23 6.78L58.31 6.15C58.34 6.01 58.31 5.95 58.11 5.95C56.13 5.95 55.48 7.14 55.20 7.73L55.03 6.33C54.96 6.16 54.91 6.10 54.80 6.10L54.45 6.10C54.29 6.10 54.24 6.16 54.24 6.33L54.24 13.01C54.24 13.17 54.29 13.23 54.45 13.23L55.08 13.23C55.23 13.23 55.29 13.17 55.29 13.01L55.29 9.56C55.29 8.26 56.15 6.99 57.97 6.99ZM62.80 12.43C61.33 12.43 60.16 11.23 60.16 9.67C60.16 8.13 61.33 6.90 62.80 6.90C63.57 6.90 64.27 7.21 64.75 7.69C64.86 7.80 64.95 7.77 65.04 7.64L65.38 7.29C65.49 7.17 65.49 7.10 65.38 7C64.67 6.29 63.76 5.95 62.79 5.95C60.75 5.95 59.12 7.63 59.12 9.67C59.12 11.72 60.75 13.38 62.79 13.38C63.76 13.38 64.67 13.05 65.38 12.33C65.49 12.24 65.49 12.17 65.38 12.04L65.04 11.69C64.95 11.56 64.86 11.54 64.75 11.65C64.27 12.12 63.57 12.43 62.80 12.43ZM67.69 13.01C67.69 13.17 67.73 13.23 67.90 13.23L68.52 13.23C68.68 13.23 68.74 13.17 68.74 13.01L68.74 6.33C68.74 6.16 68.70 6.10 68.52 6.10L67.90 6.10C67.73 6.10 67.69 6.16 67.69 6.33ZM67.47 3.77C67.47 4.17 67.79 4.49 68.19 4.49C68.60 4.49 68.94 4.17 68.94 3.77C68.94 3.36 68.60 3.04 68.19 3.04C67.79 3.04 67.47 3.36 67.47 3.77ZM77.35 11.77C77.24 11.65 77.18 11.68 77.03 11.76C76.36 12.25 75.52 12.46 74.83 12.46C73.42 12.46 72.23 11.34 72.13 10.04L77.97 10.04C78.15 10.04 78.18 9.98 78.18 9.81C78.18 7.71 76.90 5.95 74.72 5.95C72.67 5.95 71.05 7.63 71.05 9.67C71.05 11.72 72.67 13.38 74.79 13.38C75.82 13.38 76.96 13.05 77.62 12.40C77.71 12.31 77.71 12.22 77.62 12.10ZM72.16 9.31C72.20 8.05 73.26 6.83 74.70 6.83C76.13 6.83 77.04 8.05 77.10 9.31ZM83.90 6.99C84.07 6.99 84.11 6.94 84.15 6.78L84.24 6.15C84.27 6.01 84.24 5.95 84.04 5.95C82.05 5.95 81.41 7.14 81.13 7.73L80.96 6.33C80.89 6.16 80.84 6.10 80.72 6.10L80.37 6.10C80.22 6.10 80.16 6.16 80.16 6.33L80.16 13.01C80.16 13.17 80.22 13.23 80.37 13.23L81.00 13.23C81.16 13.23 81.21 13.17 81.21 13.01L81.21 9.56C81.21 8.26 82.08 6.99 83.90 6.99Z"></path></g><linearGradient data-v-d3f97b9e="" gradientTransform="rotate(25)" id="2b42deb5-15e3-46d3-aecc-b2ff08e6d481" x1="0%" y1="0%" x2="100%" y2="0%"><stop data-v-d3f97b9e="" offset="0%" style="stop-color: rgb(18, 38, 99); stop-opacity: 1;"></stop><stop data-v-d3f97b9e="" offset="100%" style="stop-color: rgb(93, 215, 173); stop-opacity: 1;"></stop></linearGradient><g data-v-d3f97b9e="" id="31291777-f717-495a-aeb2-a46e07e0efb7" transform="matrix(1.7464309692382813,0,0,1.7464309692382813,-114.20980499875733,-37.16576437632321)" stroke="none" fill="url(#2b42deb5-15e3-46d3-aecc-b2ff08e6d481)"><path d="M134.5 81.5c-.2-4.4-.9-8.8-2.2-13.1-.7-2.2-1.6-4.3-2.9-6.4-1.3-2-2.9-4.1-5.3-5.5-1.2-.7-2.5-1.2-3.9-1.5-.7-.1-1.5-.2-2.1-.2l-1.5-.1c-2-.1-4.1-.3-6.2-.5-1.6-.1-3.2-.3-4.9-.4 2.2-.6 4.4-1.5 6.3-3 2.6-1.9 4.6-4.9 5.5-8 .4-1.5.3-2.9-.3-3.9s-1.4-1.5-2.3-1.5c-.9 0-1.8.5-2.4 1.1-.7.6-1.2 1.4-1.4 2.3-.6 1.8-1.6 3.4-3.2 4.6-1.5 1.2-3.5 1.9-5.5 2.1-4.1.5-8.4-1.2-10.4-4.3-.8-1.3-1.4-2.8-1.6-4.4-.2-1.7-.1-3.4.3-5 .9-3.1 3.3-5.6 6.6-6.7 3.3-1.2 7.2-1.1 10.5.6 1.6.8 3.1 2 4.1 3.5 1.1 1.5 1.8 3.4 2.1 5.4.1.5.5.8.9.8s.8-.3.8-.9c.1-2.2-.3-4.6-1.2-6.7-1-2.2-2.6-4.1-4.6-5.5-2-1.4-4.3-2.3-6.7-2.7-2.4-.4-4.9-.4-7.3.2-2.4.6-4.8 1.7-6.8 3.5-2 1.7-3.5 4-4.4 6.5-.8 2.5-1.1 5.1-.8 7.6.2 2.6 1.1 5.2 2.6 7.5 1.8 2.8 4.5 4.9 7.5 6 .4.1.7.2 1.1.4-3.5.1-7.1.4-10.8 1.2-2.8.7-5.6 1.6-8.2 3.3-2.6 1.7-4.9 4.1-6.4 6.9-.7 1.4-1.2 3-1.6 4.4-.3 1.4-.6 2.7-.8 4.1-.4 2.7-.7 5.4-.8 8-.3 5.3-.1 10.7.7 16.1.4 2.7 1 5.4 1.9 8.1.9 2.7 2.2 5.4 4.2 7.9C75 115.7 78 117 80 117h.4c.3 2.5.7 5.1 1.1 7.6.1.6 1.6.6 1.7 0 1.7-9.6 2.5-19.3 2.5-29V78c0-1.4-1.5-2.5-3.4-2.5s-3.4 1.1-3.4 2.5v17.7c0 5 .2 10 .7 15-.5-.5-.9-1-1.5-1.7-1.3-1.5-2.3-3.5-3-5.7-.7-2.2-1.3-4.5-1.6-6.9-.7-4.8-.9-9.8-.6-14.8.1-2.5.4-4.9.7-7.4.2-1.2.4-2.4.7-3.5.3-1.1.6-2 1-2.9.9-1.8 2.2-3.2 4-4.3 1.8-1.1 3.9-1.9 6.1-2.4 3.7-.9 7.7-1.1 11.8-1.1 4.1 0 8.2.3 12.4.6 2.1.1 4.2.3 6.5.3h1.7c.5 0 .7.1 1.1.1.7.1 1.3.3 2 .7 2.6 1.4 4.7 4.9 6 8.5 1.4 3.7 2.2 7.6 2.6 11.7.4 4 .5 8.1.2 12.2-.4 4-1.1 8.1-2.6 11.8-.7 1.9-1.7 3.6-3 5.1-.9 1.1-2 2-3.2 2.6.6-6 1-11.9 1-17.9V78c0-1.4-1.5-2.5-3.4-2.5s-3.4 1.1-3.4 2.5v17.7c0 9.7.8 19.3 2.5 29 .1.6 1.6.6 1.7 0 .5-3 .9-6 1.3-9 1.9-.6 3.7-1.7 5.1-3.1 1.6-1.6 2.9-3.5 3.9-5.5 2-4 3.1-8.2 3.9-12.5 1-4.3 1.2-8.7 1-13.1zM132 137c-.6-1.2-1.3-2.6-2.5-3.6-1.2-1.1-2.6-1.8-4-2.2-1.4-.4-2.8-.5-4-.6-2.5-.1-4.8 0-7.1 0-9.3-.2-18.6-.4-27.9-.5-2.3 0-4.7-.1-7.2 0-1.3.1-2.6.2-4.1.5-1.4.3-3 .9-4.5 2-1.4 1.1-2.4 2.6-3.1 4.1-.3.7-.6 1.4-.7 2.1l-.3 1-.2 1c-.4 2.8-.4 4.9-.6 7.3-.3 5.8-.6 11.5 0 17.7.1.8.3 1.6.4 2.4.2.8.4 1.7.8 2.5.6 1.7 1.8 3.5 3.4 4.8 1.6 1.3 3.6 2.1 5.3 2.5 1.7.4 3.4.5 4.9.5 3.1 0 5.8-.1 8.6-.1h25.6c5.4 0 9.8-1.5 9.8-3.4s-4.4-3.4-9.8-3.4H89.1c-2.8 0-5.9.1-8.5.1-2.6 0-4.9-.4-6-1.4-1.2-.9-1.9-2.9-2.2-5.4-.6-5.2-.3-10.9 0-16.5.2-2.3.2-4.8.5-6.6l.1-.7.2-.7c.1-.5.3-.8.4-1.2.3-.7.6-1.2 1.1-1.5.4-.3 1.1-.6 1.9-.8.8-.2 1.8-.3 2.9-.4 2.1-.1 4.4-.1 6.8-.1 9.4-.1 18.8-.3 28.1-.5 2.4-.1 4.8-.3 6.9-.3 1 0 2.1 0 2.9.2.8.2 1.5.5 2.1 1 .6.4 1.1 1.2 1.5 2 .4.8.8 1.9 1 2.8.5 2 .7 4.3.9 6.6.4 4.5.5 9.1.2 13.7-.2 2.3-.5 4.5-1 6.7-.5 2.1-1.4 4.3-3 5.3-.8.5-1.3.8-1.4 1.2 0 .2.2.4.5.5.4.1 1 .1 1.6-.2 1.3-.6 2.2-1.7 2.8-2.8.7-1.1 1.2-2.2 1.6-3.4.8-2.3 1.3-4.7 1.7-7 .7-4.7.9-9.5.9-14.2-.1-2.4-.2-4.7-.6-7.3-.1-1.3-.5-2.4-1-3.7z"></path><path d="M88.4 154.3c-.2 0-.3 0-.3-.2 0-.1-.1-.1-.1-.2v-.1s.1-.1.1-.2l.4-.5c.9-1.3 1.8-2.8 2.5-4.3.1-.2-.9-1.4-1.1-1.3-1.7.5-3.2 1.1-4.7 1.8l-.5.3c-.1.1-.1.1-.3.2l-.5.3-1.9 1.3c-1.3.9-2.6 1.9-3.8 2.9.8.8 1.7 1.6 2.6 2.3l6.8 5.9c.4.4 1.7-.5 2.9-1.9s1.9-2.8 1.4-3.2l-3.5-3.1zM112.9 146.1c-.4-.4-1.7.5-2.9 1.9s-1.9 2.8-1.4 3.2l3.6 3.1h.1c.1 0 .2 0 .2.2 0 .1.1.1.1.2v.1s-.1.1-.1.2l-.4.5c-.9 1.3-1.8 2.8-2.5 4.3-.1.2.9 1.4 1.1 1.3 1.7-.5 3.2-1.1 4.7-1.8l.5-.3c.1-.1.1-.1.3-.2l.5-.3 1.9-1.3c1.3-.9 2.6-1.9 3.8-2.9-.8-.8-1.7-1.6-2.6-2.3l-6.9-5.9zM102.2 148c-1.8-.5-3.3-.7-3.4-.3l-1.4 4.5c-.8 2.5-.7 5.1.1 8.1.1.2 1.5.6 1.6.5 2.3-2 3.9-4.2 4.6-6.6l1.4-4.5c.3-.5-1.1-1.2-2.9-1.7z"></path></g><!----></svg>