<svg data-v-29081953="" xmlns="http://www.w3.org/2000/svg" viewBox="0 0 300 300"><!----><defs data-v-29081953=""><!----></defs><rect data-v-29081953="" fill="transparent" x="0" y="0" width="300px" height="300px" class="logo-background-square"></rect><!----><defs data-v-29081953=""><linearGradient data-v-29081953="" gradientTransform="rotate(25)" id="ee07620e-2172-4d24-9cf4-0a687aae22e3" x1="0%" y1="0%" x2="100%" y2="0%"><stop data-v-29081953="" offset="0%" stop-color="#122663" stop-opacity="1"></stop><stop data-v-29081953="" offset="100%" stop-color="#5DD7AD" stop-opacity="1"></stop></linearGradient></defs><g data-v-29081953="" id="8e8cc734-ffd4-47c7-b7ce-7479a366a19f" fill="url(#ee07620e-2172-4d24-9cf4-0a687aae22e3)" stroke="none" transform="matrix(1.3996799687482677,0,0,1.3996799687482677,10.015728770067852,10.157125578434208)"><path d="M134.5 81.5c-.2-4.4-.9-8.8-2.2-13.1-.7-2.2-1.6-4.3-2.9-6.4-1.3-2-2.9-4.1-5.3-5.5-1.2-.7-2.5-1.2-3.9-1.5-.7-.1-1.5-.2-2.1-.2l-1.5-.1c-2-.1-4.1-.3-6.2-.5-1.6-.1-3.2-.3-4.9-.4 2.2-.6 4.4-1.5 6.3-3 2.6-1.9 4.6-4.9 5.5-8 .4-1.5.3-2.9-.3-3.9s-1.4-1.5-2.3-1.5c-.9 0-1.8.5-2.4 1.1-.7.6-1.2 1.4-1.4 2.3-.6 1.8-1.6 3.4-3.2 4.6-1.5 1.2-3.5 1.9-5.5 2.1-4.1.5-8.4-1.2-10.4-4.3-.8-1.3-1.4-2.8-1.6-4.4-.2-1.7-.1-3.4.3-5 .9-3.1 3.3-5.6 6.6-6.7 3.3-1.2 7.2-1.1 10.5.6 1.6.8 3.1 2 4.1 3.5 1.1 1.5 1.8 3.4 2.1 5.4.1.5.5.8.9.8s.8-.3.8-.9c.1-2.2-.3-4.6-1.2-6.7-1-2.2-2.6-4.1-4.6-5.5-2-1.4-4.3-2.3-6.7-2.7-2.4-.4-4.9-.4-7.3.2-2.4.6-4.8 1.7-6.8 3.5-2 1.7-3.5 4-4.4 6.5-.8 2.5-1.1 5.1-.8 7.6.2 2.6 1.1 5.2 2.6 7.5 1.8 2.8 4.5 4.9 7.5 6 .4.1.7.2 1.1.4-3.5.1-7.1.4-10.8 1.2-2.8.7-5.6 1.6-8.2 3.3-2.6 1.7-4.9 4.1-6.4 6.9-.7 1.4-1.2 3-1.6 4.4-.3 1.4-.6 2.7-.8 4.1-.4 2.7-.7 5.4-.8 8-.3 5.3-.1 10.7.7 16.1.4 2.7 1 5.4 1.9 8.1.9 2.7 2.2 5.4 4.2 7.9C75 115.7 78 117 80 117h.4c.3 2.5.7 5.1 1.1 7.6.1.6 1.6.6 1.7 0 1.7-9.6 2.5-19.3 2.5-29V78c0-1.4-1.5-2.5-3.4-2.5s-3.4 1.1-3.4 2.5v17.7c0 5 .2 10 .7 15-.5-.5-.9-1-1.5-1.7-1.3-1.5-2.3-3.5-3-5.7-.7-2.2-1.3-4.5-1.6-6.9-.7-4.8-.9-9.8-.6-14.8.1-2.5.4-4.9.7-7.4.2-1.2.4-2.4.7-3.5.3-1.1.6-2 1-2.9.9-1.8 2.2-3.2 4-4.3 1.8-1.1 3.9-1.9 6.1-2.4 3.7-.9 7.7-1.1 11.8-1.1 4.1 0 8.2.3 12.4.6 2.1.1 4.2.3 6.5.3h1.7c.5 0 .7.1 1.1.1.7.1 1.3.3 2 .7 2.6 1.4 4.7 4.9 6 8.5 1.4 3.7 2.2 7.6 2.6 11.7.4 4 .5 8.1.2 12.2-.4 4-1.1 8.1-2.6 11.8-.7 1.9-1.7 3.6-3 5.1-.9 1.1-2 2-3.2 2.6.6-6 1-11.9 1-17.9V78c0-1.4-1.5-2.5-3.4-2.5s-3.4 1.1-3.4 2.5v17.7c0 9.7.8 19.3 2.5 29 .1.6 1.6.6 1.7 0 .5-3 .9-6 1.3-9 1.9-.6 3.7-1.7 5.1-3.1 1.6-1.6 2.9-3.5 3.9-5.5 2-4 3.1-8.2 3.9-12.5 1-4.3 1.2-8.7 1-13.1zM132 137c-.6-1.2-1.3-2.6-2.5-3.6-1.2-1.1-2.6-1.8-4-2.2-1.4-.4-2.8-.5-4-.6-2.5-.1-4.8 0-7.1 0-9.3-.2-18.6-.4-27.9-.5-2.3 0-4.7-.1-7.2 0-1.3.1-2.6.2-4.1.5-1.4.3-3 .9-4.5 2-1.4 1.1-2.4 2.6-3.1 4.1-.3.7-.6 1.4-.7 2.1l-.3 1-.2 1c-.4 2.8-.4 4.9-.6 7.3-.3 5.8-.6 11.5 0 17.7.1.8.3 1.6.4 2.4.2.8.4 1.7.8 2.5.6 1.7 1.8 3.5 3.4 4.8 1.6 1.3 3.6 2.1 5.3 2.5 1.7.4 3.4.5 4.9.5 3.1 0 5.8-.1 8.6-.1h25.6c5.4 0 9.8-1.5 9.8-3.4s-4.4-3.4-9.8-3.4H89.1c-2.8 0-5.9.1-8.5.1-2.6 0-4.9-.4-6-1.4-1.2-.9-1.9-2.9-2.2-5.4-.6-5.2-.3-10.9 0-16.5.2-2.3.2-4.8.5-6.6l.1-.7.2-.7c.1-.5.3-.8.4-1.2.3-.7.6-1.2 1.1-1.5.4-.3 1.1-.6 1.9-.8.8-.2 1.8-.3 2.9-.4 2.1-.1 4.4-.1 6.8-.1 9.4-.1 18.8-.3 28.1-.5 2.4-.1 4.8-.3 6.9-.3 1 0 2.1 0 2.9.2.8.2 1.5.5 2.1 1 .6.4 1.1 1.2 1.5 2 .4.8.8 1.9 1 2.8.5 2 .7 4.3.9 6.6.4 4.5.5 9.1.2 13.7-.2 2.3-.5 4.5-1 6.7-.5 2.1-1.4 4.3-3 5.3-.8.5-1.3.8-1.4 1.2 0 .2.2.4.5.5.4.1 1 .1 1.6-.2 1.3-.6 2.2-1.7 2.8-2.8.7-1.1 1.2-2.2 1.6-3.4.8-2.3 1.3-4.7 1.7-7 .7-4.7.9-9.5.9-14.2-.1-2.4-.2-4.7-.6-7.3-.1-1.3-.5-2.4-1-3.7z"></path><path d="M88.4 154.3c-.2 0-.3 0-.3-.2 0-.1-.1-.1-.1-.2v-.1s.1-.1.1-.2l.4-.5c.9-1.3 1.8-2.8 2.5-4.3.1-.2-.9-1.4-1.1-1.3-1.7.5-3.2 1.1-4.7 1.8l-.5.3c-.1.1-.1.1-.3.2l-.5.3-1.9 1.3c-1.3.9-2.6 1.9-3.8 2.9.8.8 1.7 1.6 2.6 2.3l6.8 5.9c.4.4 1.7-.5 2.9-1.9s1.9-2.8 1.4-3.2l-3.5-3.1zM112.9 146.1c-.4-.4-1.7.5-2.9 1.9s-1.9 2.8-1.4 3.2l3.6 3.1h.1c.1 0 .2 0 .2.2 0 .1.1.1.1.2v.1s-.1.1-.1.2l-.4.5c-.9 1.3-1.8 2.8-2.5 4.3-.1.2.9 1.4 1.1 1.3 1.7-.5 3.2-1.1 4.7-1.8l.5-.3c.1-.1.1-.1.3-.2l.5-.3 1.9-1.3c1.3-.9 2.6-1.9 3.8-2.9-.8-.8-1.7-1.6-2.6-2.3l-6.9-5.9zM102.2 148c-1.8-.5-3.3-.7-3.4-.3l-1.4 4.5c-.8 2.5-.7 5.1.1 8.1.1.2 1.5.6 1.6.5 2.3-2 3.9-4.2 4.6-6.6l1.4-4.5c.3-.5-1.1-1.2-2.9-1.7z"></path></g><!----></svg>