<svg data-v-d3f97b9e="" xmlns="http://www.w3.org/2000/svg" viewBox="0 0 558 110"><!----><!----><!----><g data-v-d3f97b9e="" id="224ae03f-34bf-4662-b92a-586dea966152" fill="white" transform="matrix(5.964215028353327,0,0,5.964215028353327,122.70656932213649,0.627637119289389)"><path d="M6.79 14L6.79 14Q6.62 14 6.55 13.85L6.55 13.85L4.62 9.70L4.62 9.70Q4.59 9.65 4.54 9.65L4.54 9.65L2.56 9.65L2.56 9.65Q2.49 9.65 2.49 9.72L2.49 9.72L2.49 13.79L2.49 13.79Q2.49 13.89 2.44 13.94L2.44 13.94L2.44 13.94Q2.38 14 2.28 14L2.28 14L1.36 14L1.36 14Q1.26 14 1.20 13.94L1.20 13.94L1.20 13.94Q1.15 13.89 1.15 13.79L1.15 13.79L1.15 4.40L1.15 4.40Q1.15 4.30 1.20 4.24L1.20 4.24L1.20 4.24Q1.26 4.19 1.36 4.19L1.36 4.19L5.05 4.19L5.05 4.19Q5.89 4.19 6.53 4.54L6.53 4.54L6.53 4.54Q7.17 4.89 7.52 5.52L7.52 5.52L7.52 5.52Q7.87 6.15 7.87 6.97L7.87 6.97L7.87 6.97Q7.87 7.94 7.35 8.62L7.35 8.62L7.35 8.62Q6.83 9.30 5.95 9.53L5.95 9.53L5.95 9.53Q5.89 9.56 5.91 9.62L5.91 9.62L7.90 13.75L7.92 13.86L7.92 13.86Q7.92 14 7.74 14L7.74 14L6.79 14ZM2.56 5.35L2.56 5.35Q2.49 5.35 2.49 5.42L2.49 5.42L2.49 8.53L2.49 8.53Q2.49 8.60 2.56 8.60L2.56 8.60L4.89 8.60L4.89 8.60Q5.61 8.60 6.07 8.15L6.07 8.15L6.07 8.15Q6.52 7.70 6.52 6.99L6.52 6.99L6.52 6.99Q6.52 6.24 6.08 5.80L6.08 5.80L6.08 5.80Q5.63 5.35 4.89 5.35L4.89 5.35L2.56 5.35ZM12.49 14.11L12.49 14.11Q11.44 14.11 10.68 13.59L10.68 13.59L10.68 13.59Q9.91 13.06 9.60 12.12L9.60 12.12L9.60 12.12Q9.35 11.37 9.35 10.42L9.35 10.42L9.35 10.42Q9.35 9.42 9.59 8.74L9.59 8.74L9.59 8.74Q9.90 7.81 10.67 7.29L10.67 7.29L10.67 7.29Q11.44 6.76 12.50 6.76L12.50 6.76L12.50 6.76Q13.51 6.76 14.26 7.29L14.26 7.29L14.26 7.29Q15.01 7.81 15.33 8.72L15.33 8.72L15.33 8.72Q15.58 9.44 15.58 10.40L15.58 10.40L15.58 10.40Q15.58 11.38 15.33 12.12L15.33 12.12L15.33 12.12Q15.02 13.06 14.27 13.59L14.27 13.59L14.27 13.59Q13.51 14.11 12.49 14.11L12.49 14.11ZM12.49 12.95L12.49 12.95Q13.05 12.95 13.47 12.63L13.47 12.63L13.47 12.63Q13.89 12.32 14.07 11.75L14.07 11.75L14.07 11.75Q14.22 11.21 14.22 10.43L14.22 10.43L14.22 10.43Q14.22 9.65 14.08 9.13L14.08 9.13L14.08 9.13Q13.90 8.55 13.48 8.24L13.48 8.24L13.48 8.24Q13.06 7.92 12.46 7.92L12.46 7.92L12.46 7.92Q11.89 7.92 11.47 8.24L11.47 8.24L11.47 8.24Q11.05 8.55 10.86 9.13L10.86 9.13L10.86 9.13Q10.71 9.62 10.71 10.43L10.71 10.43L10.71 10.43Q10.71 11.24 10.86 11.75L10.86 11.75L10.86 11.75Q11.03 12.32 11.46 12.63L11.46 12.63L11.46 12.63Q11.89 12.95 12.49 12.95L12.49 12.95ZM23.09 8.72L23.09 8.72Q23.30 9.39 23.30 10.42L23.30 10.42L23.30 10.42Q23.30 11.51 23.04 12.21L23.04 12.21L23.04 12.21Q22.74 13.12 22.07 13.62L22.07 13.62L22.07 13.62Q21.41 14.11 20.40 14.11L20.40 14.11L20.40 14.11Q19.91 14.11 19.50 13.92L19.50 13.92L19.50 13.92Q19.08 13.73 18.77 13.38L18.77 13.38L18.77 13.38Q18.75 13.36 18.72 13.37L18.72 13.37L18.72 13.37Q18.69 13.38 18.69 13.43L18.69 13.43L18.69 13.79L18.69 13.79Q18.69 13.89 18.63 13.94L18.63 13.94L18.63 13.94Q18.58 14 18.48 14L18.48 14L17.56 14L17.56 14Q17.46 14 17.40 13.94L17.40 13.94L17.40 13.94Q17.35 13.89 17.35 13.79L17.35 13.79L17.35 4.41L17.35 4.41Q17.35 4.31 17.40 4.26L17.40 4.26L17.40 4.26Q17.46 4.20 17.56 4.20L17.56 4.20L18.48 4.20L18.48 4.20Q18.58 4.20 18.63 4.26L18.63 4.26L18.63 4.26Q18.69 4.31 18.69 4.41L18.69 4.41L18.69 7.45L18.69 7.45Q18.69 7.49 18.72 7.50L18.72 7.50L18.72 7.50Q18.75 7.50 18.77 7.48L18.77 7.48L18.77 7.48Q19.08 7.13 19.50 6.94L19.50 6.94L19.50 6.94Q19.91 6.76 20.40 6.76L20.40 6.76L20.40 6.76Q21.43 6.76 22.11 7.28L22.11 7.28L22.11 7.28Q22.79 7.80 23.09 8.72L23.09 8.72ZM21.60 12.18L21.60 12.18Q21.95 11.52 21.95 10.44L21.95 10.44L21.95 10.44Q21.95 9.30 21.50 8.60L21.50 8.60L21.50 8.60Q21.07 7.92 20.26 7.92L20.26 7.92L20.26 7.92Q19.47 7.92 19.07 8.64L19.07 8.64L19.07 8.64Q18.70 9.28 18.70 10.43L18.70 10.43L18.70 10.43Q18.70 11.58 19.04 12.19L19.04 12.19L19.04 12.19Q19.46 12.95 20.26 12.95L20.26 12.95L20.26 12.95Q21.20 12.95 21.60 12.18L21.60 12.18ZM28.18 14L28.18 14Q28.08 14 28.03 13.94L28.03 13.94L28.03 13.94Q27.97 13.89 27.97 13.79L27.97 13.79L27.97 4.41L27.97 4.41Q27.97 4.31 28.03 4.26L28.03 4.26L28.03 4.26Q28.08 4.20 28.18 4.20L28.18 4.20L29.12 4.20L29.12 4.20Q29.29 4.20 29.37 4.34L29.37 4.34L31.72 8.09L31.72 8.09Q31.77 8.18 31.81 8.09L31.81 8.09L34.17 4.34L34.17 4.34Q34.26 4.20 34.43 4.20L34.43 4.20L35.36 4.20L35.36 4.20Q35.46 4.20 35.52 4.26L35.52 4.26L35.52 4.26Q35.57 4.31 35.57 4.41L35.57 4.41L35.57 13.79L35.57 13.79Q35.57 13.89 35.52 13.94L35.52 13.94L35.52 13.94Q35.46 14 35.36 14L35.36 14L34.44 14L34.44 14Q34.34 14 34.29 13.94L34.29 13.94L34.29 13.94Q34.23 13.89 34.23 13.79L34.23 13.79L34.23 6.68L34.23 6.68Q34.23 6.62 34.20 6.62L34.20 6.62L34.20 6.62Q34.17 6.61 34.15 6.65L34.15 6.65L32.24 9.76L32.24 9.76Q32.16 9.90 31.99 9.90L31.99 9.90L31.54 9.90L31.54 9.90Q31.37 9.90 31.29 9.76L31.29 9.76L29.40 6.65L29.40 6.65Q29.37 6.61 29.34 6.62L29.34 6.62L29.34 6.62Q29.32 6.62 29.32 6.68L29.32 6.68L29.32 13.79L29.32 13.79Q29.32 13.89 29.26 13.94L29.26 13.94L29.26 13.94Q29.20 14 29.11 14L29.11 14L28.18 14ZM40.70 12.96L40.70 12.96Q41.83 12.95 42.32 12.08L42.32 12.08L42.32 12.08Q42.39 11.96 42.48 11.96L42.48 11.96L42.48 11.96Q42.55 11.96 42.60 12.00L42.60 12.00L43.18 12.35L43.18 12.35Q43.29 12.42 43.29 12.53L43.29 12.53L43.26 12.64L43.26 12.64Q42.88 13.33 42.19 13.72L42.19 13.72L42.19 13.72Q41.50 14.11 40.57 14.11L40.57 14.11L40.57 14.11Q39.58 14.11 38.89 13.67L38.89 13.67L38.89 13.67Q38.21 13.23 37.86 12.40L37.86 12.40L37.86 12.40Q37.51 11.55 37.51 10.40L37.51 10.40L37.51 10.40Q37.51 9.38 37.66 8.85L37.66 8.85L37.66 8.85Q37.91 7.88 38.67 7.32L38.67 7.32L38.67 7.32Q39.42 6.76 40.50 6.76L40.50 6.76L40.50 6.76Q41.83 6.76 42.53 7.46L42.53 7.46L42.53 7.46Q43.23 8.15 43.44 9.46L43.44 9.46L43.44 9.46Q43.51 9.98 43.54 10.72L43.54 10.72L43.54 10.72Q43.54 10.93 43.33 10.93L43.33 10.93L38.91 10.93L38.91 10.93Q38.84 10.93 38.84 11.00L38.84 11.00L38.84 11.00Q38.86 11.54 38.93 11.76L38.93 11.76L38.93 11.76Q39.09 12.32 39.55 12.64L39.55 12.64L39.55 12.64Q40.01 12.96 40.70 12.96L40.70 12.96ZM40.50 7.92L40.50 7.92Q39.89 7.92 39.50 8.22L39.50 8.22L39.50 8.22Q39.12 8.51 38.98 9.03L38.98 9.03L38.98 9.03Q38.88 9.34 38.85 9.81L38.85 9.81L38.85 9.81Q38.85 9.88 38.92 9.88L38.92 9.88L42.10 9.88L42.10 9.88Q42.17 9.88 42.17 9.81L42.17 9.81L42.17 9.81Q42.14 9.35 42.08 9.13L42.08 9.13L42.08 9.13Q41.94 8.58 41.53 8.25L41.53 8.25L41.53 8.25Q41.12 7.92 40.50 7.92L40.50 7.92ZM48.36 6.80L48.36 6.80Q48.78 6.80 49.11 6.96L49.11 6.96L49.11 6.96Q49.27 7.04 49.22 7.22L49.22 7.22L49.03 8.13L49.03 8.13Q49.01 8.27 48.89 8.27L48.89 8.27L48.89 8.27Q48.82 8.27 48.78 8.26L48.78 8.26L48.78 8.26Q48.57 8.19 48.30 8.19L48.30 8.19L48.30 8.19Q48.16 8.19 48.09 8.20L48.09 8.20L48.09 8.20Q47.43 8.23 47.01 8.66L47.01 8.66L47.01 8.66Q46.58 9.09 46.58 9.77L46.58 9.77L46.58 13.79L46.58 13.79Q46.58 13.89 46.52 13.94L46.52 13.94L46.52 13.94Q46.47 14 46.37 14L46.37 14L45.44 14L45.44 14Q45.35 14 45.29 13.94L45.29 13.94L45.29 13.94Q45.23 13.89 45.23 13.79L45.23 13.79L45.23 7.08L45.23 7.08Q45.23 6.99 45.29 6.93L45.29 6.93L45.29 6.93Q45.35 6.87 45.44 6.87L45.44 6.87L46.37 6.87L46.37 6.87Q46.47 6.87 46.52 6.93L46.52 6.93L46.52 6.93Q46.58 6.99 46.58 7.08L46.58 7.08L46.58 7.73L46.58 7.73Q46.58 7.78 46.60 7.79L46.60 7.79L46.60 7.79Q46.62 7.80 46.65 7.76L46.65 7.76L46.65 7.76Q47.28 6.80 48.36 6.80L48.36 6.80ZM53.28 14.11L53.28 14.11Q52.22 14.11 51.46 13.57L51.46 13.57L51.46 13.57Q50.71 13.03 50.43 12.11L50.43 12.11L50.43 12.11Q50.22 11.47 50.22 10.42L50.22 10.42L50.22 10.42Q50.22 9.45 50.43 8.72L50.43 8.72L50.43 8.72Q50.71 7.83 51.47 7.29L51.47 7.29L51.47 7.29Q52.23 6.76 53.28 6.76L53.28 6.76L53.28 6.76Q54.33 6.76 55.12 7.29L55.12 7.29L55.12 7.29Q55.90 7.83 56.14 8.64L56.14 8.64L56.14 8.64Q56.21 8.82 56.24 9.03L56.24 9.03L56.24 9.06L56.24 9.06Q56.24 9.23 56.06 9.25L56.06 9.25L55.15 9.38L55.10 9.38L55.10 9.38Q54.95 9.38 54.91 9.23L54.91 9.23L54.87 9.04L54.87 9.04Q54.75 8.57 54.32 8.25L54.32 8.25L54.32 8.25Q53.89 7.92 53.27 7.92L53.27 7.92L53.27 7.92Q52.67 7.92 52.25 8.25L52.25 8.25L52.25 8.25Q51.83 8.57 51.70 9.10L51.70 9.10L51.70 9.10Q51.58 9.60 51.58 10.43L51.58 10.43L51.58 10.43Q51.58 11.24 51.70 11.75L51.70 11.75L51.70 11.75Q51.84 12.31 52.26 12.63L52.26 12.63L52.26 12.63Q52.67 12.95 53.27 12.95L53.27 12.95L53.27 12.95Q53.87 12.95 54.31 12.63L54.31 12.63L54.31 12.63Q54.74 12.32 54.87 11.83L54.87 11.83L54.88 11.77L54.88 11.76L54.88 11.76Q54.89 11.69 54.96 11.63L54.96 11.63L54.96 11.63Q55.03 11.56 55.12 11.58L55.12 11.58L56.03 11.73L56.03 11.73Q56.22 11.77 56.21 11.96L56.21 11.96L56.21 11.96Q56.20 12.01 56.14 12.22L56.14 12.22L56.14 12.22Q55.90 13.08 55.12 13.59L55.12 13.59L55.12 13.59Q54.33 14.11 53.28 14.11L53.28 14.11ZM58.58 5.81L58.58 5.81Q58.17 5.81 57.91 5.56L57.91 5.56L57.91 5.56Q57.65 5.32 57.65 4.93L57.65 4.93L57.65 4.93Q57.65 4.54 57.91 4.29L57.91 4.29L57.91 4.29Q58.17 4.05 58.58 4.05L58.58 4.05L58.58 4.05Q58.98 4.05 59.23 4.29L59.23 4.29L59.23 4.29Q59.49 4.54 59.49 4.93L59.49 4.93L59.49 4.93Q59.49 5.32 59.23 5.56L59.23 5.56L59.23 5.56Q58.98 5.81 58.58 5.81L58.58 5.81ZM58.11 14L58.11 14Q58.02 14 57.96 13.94L57.96 13.94L57.96 13.94Q57.90 13.89 57.90 13.79L57.90 13.79L57.90 7.08L57.90 7.08Q57.90 6.99 57.96 6.93L57.96 6.93L57.96 6.93Q58.02 6.87 58.11 6.87L58.11 6.87L59.04 6.87L59.04 6.87Q59.14 6.87 59.19 6.93L59.19 6.93L59.19 6.93Q59.25 6.99 59.25 7.08L59.25 7.08L59.25 13.79L59.25 13.79Q59.25 13.89 59.19 13.94L59.19 13.94L59.19 13.94Q59.14 14 59.04 14L59.04 14L58.11 14ZM64.30 12.96L64.30 12.96Q65.44 12.95 65.93 12.08L65.93 12.08L65.93 12.08Q66.00 11.96 66.08 11.96L66.08 11.96L66.08 11.96Q66.15 11.96 66.21 12.00L66.21 12.00L66.78 12.35L66.78 12.35Q66.89 12.42 66.89 12.53L66.89 12.53L66.86 12.64L66.86 12.64Q66.49 13.33 65.79 13.72L65.79 13.72L65.79 13.72Q65.10 14.11 64.18 14.11L64.18 14.11L64.18 14.11Q63.18 14.11 62.50 13.67L62.50 13.67L62.50 13.67Q61.81 13.23 61.46 12.40L61.46 12.40L61.46 12.40Q61.11 11.55 61.11 10.40L61.11 10.40L61.11 10.40Q61.11 9.38 61.26 8.85L61.26 8.85L61.26 8.85Q61.52 7.88 62.27 7.32L62.27 7.32L62.27 7.32Q63.03 6.76 64.11 6.76L64.11 6.76L64.11 6.76Q65.44 6.76 66.14 7.46L66.14 7.46L66.14 7.46Q66.84 8.15 67.05 9.46L67.05 9.46L67.05 9.46Q67.12 9.98 67.14 10.72L67.14 10.72L67.14 10.72Q67.14 10.93 66.93 10.93L66.93 10.93L62.51 10.93L62.51 10.93Q62.44 10.93 62.44 11.00L62.44 11.00L62.44 11.00Q62.47 11.54 62.54 11.76L62.54 11.76L62.54 11.76Q62.69 12.32 63.15 12.64L63.15 12.64L63.15 12.64Q63.62 12.96 64.30 12.96L64.30 12.96ZM64.11 7.92L64.11 7.92Q63.49 7.92 63.11 8.22L63.11 8.22L63.11 8.22Q62.72 8.51 62.58 9.03L62.58 9.03L62.58 9.03Q62.48 9.34 62.45 9.81L62.45 9.81L62.45 9.81Q62.45 9.88 62.52 9.88L62.52 9.88L65.70 9.88L65.70 9.88Q65.77 9.88 65.77 9.81L65.77 9.81L65.77 9.81Q65.74 9.35 65.69 9.13L65.69 9.13L65.69 9.13Q65.55 8.58 65.14 8.25L65.14 8.25L65.14 8.25Q64.72 7.92 64.11 7.92L64.11 7.92ZM71.96 6.80L71.96 6.80Q72.38 6.80 72.72 6.96L72.72 6.96L72.72 6.96Q72.87 7.04 72.83 7.22L72.83 7.22L72.63 8.13L72.63 8.13Q72.62 8.27 72.49 8.27L72.49 8.27L72.49 8.27Q72.42 8.27 72.38 8.26L72.38 8.26L72.38 8.26Q72.17 8.19 71.90 8.19L71.90 8.19L71.90 8.19Q71.76 8.19 71.69 8.20L71.69 8.20L71.69 8.20Q71.04 8.23 70.61 8.66L70.61 8.66L70.61 8.66Q70.18 9.09 70.18 9.77L70.18 9.77L70.18 13.79L70.18 13.79Q70.18 13.89 70.13 13.94L70.13 13.94L70.13 13.94Q70.07 14 69.97 14L69.97 14L69.05 14L69.05 14Q68.95 14 68.89 13.94L68.89 13.94L68.89 13.94Q68.84 13.89 68.84 13.79L68.84 13.79L68.84 7.08L68.84 7.08Q68.84 6.99 68.89 6.93L68.89 6.93L68.89 6.93Q68.95 6.87 69.05 6.87L69.05 6.87L69.97 6.87L69.97 6.87Q70.07 6.87 70.13 6.93L70.13 6.93L70.13 6.93Q70.18 6.99 70.18 7.08L70.18 7.08L70.18 7.73L70.18 7.73Q70.18 7.78 70.20 7.79L70.20 7.79L70.20 7.79Q70.22 7.80 70.25 7.76L70.25 7.76L70.25 7.76Q70.88 6.80 71.96 6.80L71.96 6.80Z"></path></g><!----><g data-v-d3f97b9e="" id="b6a2b3d5-cba2-47be-8bd8-afb9767c495d" transform="matrix(1.1033555772569446,0,0,1.1033555772569446,-3.1419726159423647,-0.9048750541897306)" stroke="none" fill="white"><path d="M81.263 1.182h-56.99c-15.275 0-20.797 5.312-20.797 21.18v57.192c0 15.373 5.522 20.93 20.796 20.93h56.991c15.403 0 21.515-5.557 21.515-20.93V22.362c0-15.868-5.912-21.18-21.515-21.18zM61.226 29.796h6.995L45.688 71.87h-8.092M70.12 36.538l.009-6.695 22.37 17.635c-.032 2.082.032 4.482 0 6.564L70.13 71.676l.018-6.755L88.508 50.79zM17.746 50.789l18.361 14.132.018 6.755-22.37-17.634c-.032-2.082.032-4.482 0-6.564l22.37-17.635.01 6.695z"></path></g><!----></svg>